<?xml version="1.0" encoding="UTF-8" standalone="no"?>
<!-- Created with Inkscape (http://www.inkscape.org/) -->

<svg
   xmlns:dc="http://purl.org/dc/elements/1.1/"
   xmlns:cc="http://creativecommons.org/ns#"
   xmlns:rdf="http://www.w3.org/1999/02/22-rdf-syntax-ns#"
   xmlns:svg="http://www.w3.org/2000/svg"
   xmlns="http://www.w3.org/2000/svg"
   version="1.1"
   width="243.7"
   height="301.25"
   id="svg2985"
   xml:space="preserve"><metadata
     id="metadata2991"><rdf:RDF><cc:Work
         rdf:about=""><dc:format>image/svg+xml</dc:format><dc:type
           rdf:resource="http://purl.org/dc/dcmitype/StillImage" /><dc:title></dc:title></cc:Work></rdf:RDF></metadata><defs
     id="defs2989"><clipPath
       id="clipPath3015"><path
         d="m 0,0 566.929,0 0,737.008 L 0,737.008 0,0 z"
         id="path3017" /></clipPath><clipPath
       id="clipPath3181"><path
         d="m 185.337,278.341 223.479,0 0,250.773 -223.479,0 0,-250.773 z"
         id="path3183" /></clipPath><clipPath
       id="clipPath4033"><path
         d="m 0,0 566.929,0 0,737.008 L 0,737.008 0,0 z"
         id="path4035" /></clipPath></defs><g
     transform="matrix(1.25,0,0,-1.25,-0.2663875,908.71627)"
     id="g2993"><path
       d="m 0.21311,536.65409 194.98399,0 0,190.169 -194.98399,0 0,-190.169 z"
       id="path3167"
       style="fill:#ffffff;fill-opacity:1;fill-rule:nonzero;stroke:none" /><g
       transform="translate(136.9582,599.19449)"
       id="g3169"><path
         d="m 0,0 -55.985,0 0,65.092 55.512,0 0,-17.854 -34.125,0 0,-6.601 31.805,0 0,-15.715 -31.805,0 0,-7.068 L 0,17.854 0,0 z m 58.239,18.596 0,109.035 -194.984,0 0,-62.539 22.692,0 13.946,-22.877 13.947,22.877 22.693,0 0,-65.092 -21.671,0 0,32.267 -14.969,-23.153 -0.369,0 -14.97,23.153 0,-32.267 -21.299,0 0,-62.541 194.984,0 0,62.541 -52.357,0 0,65.092 21.76,0 0,-46.496 30.597,0 z"
         id="path3171"
         style="fill:#ed1c24;fill-opacity:1;fill-rule:nonzero;stroke:none" /></g><g
       transform="translate(0.32861,497.57939)"
       id="g3173"><path
         d="m 0,0 8.119,0 0,-0.715 -7.267,0 0,-4.127 6.536,0 0,-0.705 -6.536,0 0,-4.206 7.348,0 0,-0.722 -8.2,0 L 0,0 z"
         id="path3175"
         style="fill:#ed1c24;fill-opacity:1;fill-rule:nonzero;stroke:none" /></g><g
       transform="translate(-185.1249,197.71109)"
       id="g3177"><g
         clip-path="url(#clipPath3181)"
         id="g3179"><g
           transform="translate(196.2027,293.7466)"
           id="g3185"><path
             d="m 0,0 0,6.122 0.841,0 0,-6.041 c 0,-2.472 1.454,-3.894 3.86,-3.894 2.32,0 3.799,1.292 3.799,3.813 l 0,6.122 0.852,0 0,-6.03 C 9.352,-2.914 7.44,-4.521 4.671,-4.521 1.935,-4.521 0,-2.928 0,0"
             id="path3187"
             style="fill:#ed1c24;fill-opacity:1;fill-rule:nonzero;stroke:none" /></g><g
           transform="translate(213.4567,294.4369)"
           id="g3189"><path
             d="m 0,0 c 1.912,0 3.318,0.876 3.318,2.397 l 0,0.024 c 0,1.412 -1.197,2.295 -3.269,2.295 l -3.889,0 L -3.84,0 0,0 z m -4.689,5.431 4.792,0 C 1.504,5.431 2.63,5.021 3.318,4.403 3.853,3.905 4.176,3.201 4.176,2.461 l 0,-0.04 c 0,-1.744 -1.415,-2.759 -3.345,-2.984 l 3.76,-4.48 -1.065,0 -3.636,4.337 -3.73,0 0,-4.337 -0.849,0 0,10.474 z"
             id="path3191"
             style="fill:#ed1c24;fill-opacity:1;fill-rule:nonzero;stroke:none" /></g><g
           transform="translate(230.6422,294.6017)"
           id="g3193"><path
             d="m 0,0 0,0.031 c 0,2.585 -2.056,4.712 -4.878,4.712 -2.813,0 -4.828,-2.093 -4.828,-4.687 l 0,-0.025 c 0,-2.591 2.045,-4.716 4.866,-4.716 2.811,0 4.84,2.1 4.84,4.685 m -10.589,0 0,0.031 c 0,2.863 2.289,5.407 5.749,5.407 3.453,0 5.719,-2.526 5.719,-5.382 l 0,-0.025 c 0,-2.864 -2.303,-5.417 -5.757,-5.417 -3.447,0 -5.711,2.526 -5.711,5.386"
             id="path3195"
             style="fill:#ed1c24;fill-opacity:1;fill-rule:nonzero;stroke:none" /></g><g
           transform="translate(238.3832,294.0164)"
           id="g3197"><path
             d="m 0,0 c 2.12,0 3.553,1.011 3.553,2.565 l 0,0.035 c 0,1.661 -1.401,2.536 -3.45,2.536 l -3.236,0 L -3.133,0 0,0 z m -3.972,5.851 4.143,0 C 2.67,5.851 4.4,4.669 4.4,2.647 l 0,-0.022 c 0,-2.204 -2.067,-3.349 -4.443,-3.349 l -3.09,0 0,-3.9 -0.839,0 0,10.475 z"
             id="path3199"
             style="fill:#ed1c24;fill-opacity:1;fill-rule:nonzero;stroke:none" /></g><g
           transform="translate(250.5621,302.6045)"
           id="g3201"><path
             d="m 0,0 0.966,-0.422 -1.751,-1.338 -0.73,0 L 0,0 z m -5.258,-2.737 8.107,0 0,-0.715 -7.265,0 0,-4.126 6.534,0 0,-0.705 -6.534,0 0,-4.207 7.348,0 0,-0.721 -8.19,0 0,10.474 z"
             id="path3203"
             style="fill:#ed1c24;fill-opacity:1;fill-rule:nonzero;stroke:none" /></g><g
           transform="translate(256.2199,299.8683)"
           id="g3205"><path
             d="m 0,0 8.121,0 0,-0.715 -7.28,0 0,-4.127 6.532,0 0,-0.705 -6.532,0 0,-4.206 7.349,0 0,-0.722 -8.19,0 L 0,0 z"
             id="path3207"
             style="fill:#ed1c24;fill-opacity:1;fill-rule:nonzero;stroke:none" /></g><g
           transform="translate(267.141,299.8683)"
           id="g3209"><path
             d="m 0,0 0.794,0 7.878,-9.114 0,9.114 0.807,0 0,-10.475 -0.636,0 -8.025,9.303 0,-9.303 -0.818,0 L 0,0 z"
             id="path3211"
             style="fill:#ed1c24;fill-opacity:1;fill-rule:nonzero;stroke:none" /></g><g
           transform="translate(280.011,299.8683)"
           id="g3213"><path
             d="m 0,0 0.8,0 7.879,-9.114 0,9.114 0.811,0 0,-10.475 -0.634,0 -8.031,9.303 0,-9.303 -0.825,0 L 0,0 z"
             id="path3215"
             style="fill:#ed1c24;fill-opacity:1;fill-rule:nonzero;stroke:none" /></g><g
           transform="translate(292.897,299.8683)"
           id="g3217"><path
             d="m 0,0 8.115,0 0,-0.715 -7.27,0 0,-4.127 6.53,0 0,-0.705 -6.53,0 0,-4.206 7.343,0 0,-0.722 -8.188,0 L 0,0 z"
             id="path3219"
             style="fill:#ed1c24;fill-opacity:1;fill-rule:nonzero;stroke:none" /></g><g
           transform="translate(309.5498,299.1533)"
           id="g3221"><path
             d="m 0,0 0,-9.038 2.948,0 c 3.18,0 5.186,1.988 5.186,4.486 l 0,0.031 C 8.134,-2.046 6.128,0 2.948,0 L 0,0 z m -0.84,0.715 3.788,0 c 3.584,0 6.068,-2.255 6.068,-5.211 l 0,-0.025 c 0,-2.95 -2.484,-5.239 -6.068,-5.239 l -3.788,0 0,10.475 z"
             id="path3223"
             style="fill:#ed1c24;fill-opacity:1;fill-rule:nonzero;stroke:none" /></g><g
           transform="translate(321.4528,299.8683)"
           id="g3225"><path
             d="m 0,0 8.116,0 0,-0.715 -7.267,0 0,-4.127 6.53,0 0,-0.705 -6.53,0 0,-4.206 7.346,0 0,-0.722 -8.195,0 L 0,0 z"
             id="path3227"
             style="fill:#ed1c24;fill-opacity:1;fill-rule:nonzero;stroke:none" /></g><g
           transform="translate(337.2637,299.8683)"
           id="g3229"><path
             d="m 0,0 0.852,0 0,-9.753 6.688,0 0,-0.722 -7.54,0 L 0,0 z"
             id="path3231"
             style="fill:#ed1c24;fill-opacity:1;fill-rule:nonzero;stroke:none" /></g><path
           d="m 347.461,299.869 0.85,0 0,-10.475 -0.85,0 0,10.475 z"
           id="path3233"
           style="fill:#ed1c24;fill-opacity:1;fill-rule:nonzero;stroke:none" /><g
           transform="translate(351.8186,299.8683)"
           id="g3235"><path
             d="m 0,0 0.841,0 0,-9.753 6.704,0 0,-0.722 -7.545,0 L 0,0 z"
             id="path3237"
             style="fill:#ed1c24;fill-opacity:1;fill-rule:nonzero;stroke:none" /></g><g
           transform="translate(361.9152,299.8683)"
           id="g3239"><path
             d="m 0,0 0.84,0 0,-9.753 6.692,0 0,-0.722 -7.532,0 L 0,0 z"
             id="path3241"
             style="fill:#ed1c24;fill-opacity:1;fill-rule:nonzero;stroke:none" /></g><g
           transform="translate(372.0074,299.8683)"
           id="g3243"><path
             d="m 0,0 8.105,0 0,-0.715 -7.267,0 0,-4.127 6.526,0 0,-0.705 -6.526,0 0,-4.206 7.35,0 0,-0.722 -8.188,0 L 0,0 z"
             id="path3245"
             style="fill:#ed1c24;fill-opacity:1;fill-rule:nonzero;stroke:none" /></g><g
           transform="translate(185.4633,329.244)"
           id="g3247"><path
             d="M 0,0 7.375,0 11.912,-7.439 16.45,0 l 7.375,0 0,-21.162 -7.043,0 0,10.49 -4.87,-7.527 -0.119,0 -4.869,7.527 0,-10.49 -6.924,0 L 0,0 z"
             id="path3249"
             style="fill:#ed1c24;fill-opacity:1;fill-rule:nonzero;stroke:none" /></g><g
           transform="translate(221.0612,335.5057)"
           id="g3251"><path
             d="m 0,0 6.983,-1.576 -4.836,-3.476 -5.048,0 L 0,0 z m -9.338,-6.261 18.047,0 0,-5.803 -11.096,0 0,-2.147 10.34,0 0,-5.113 -10.34,0 0,-2.295 11.246,0 0,-5.804 -18.197,0 0,21.162 z"
             id="path3253"
             style="fill:#ed1c24;fill-opacity:1;fill-rule:nonzero;stroke:none" /></g><g
           transform="translate(237.2513,323.2599)"
           id="g3255"><path
             d="m 0,0 -6.231,0 0,5.983 19.535,0 0,-5.983 -6.23,0 0,-15.177 -7.074,0 L 0,0 z"
             id="path3257"
             style="fill:#ed1c24;fill-opacity:1;fill-rule:nonzero;stroke:none" /></g><g
           transform="translate(262.2977,319.1772)"
           id="g3259"><path
             d="m 0,0 c 1.688,0 2.717,0.753 2.717,2.056 l 0,0.062 c 0,1.357 -1.06,2.025 -2.694,2.025 l -3.08,0 L -3.057,0 0,0 z m -10.132,10.067 10.34,0 C 3.956,10.067 6.346,9.128 7.827,7.65 9.098,6.382 9.764,4.808 9.764,2.629 l 0,-0.058 c 0,-3.084 -1.603,-5.229 -4.173,-6.469 l 4.926,-7.197 -8.072,0 -3.991,6.043 -1.511,0 0,-6.043 -7.075,0 0,21.162 z"
             id="path3261"
             style="fill:#ed1c24;fill-opacity:1;fill-rule:nonzero;stroke:none" /></g><g
           transform="translate(289.2719,318.6051)"
           id="g3263"><path
             d="m 0,0 0,0.059 c 0,2.508 -1.721,4.778 -4.443,4.778 -2.69,0 -4.386,-2.239 -4.386,-4.716 l 0,-0.062 c 0,-2.513 1.726,-4.777 4.447,-4.777 C -1.69,-4.718 0,-2.483 0,0 m -15.964,0 0,0.059 c 0,6.135 5.055,11.035 11.582,11.035 6.529,0 11.521,-4.84 11.521,-10.973 l 0,-0.062 c 0,-6.138 -5.052,-11.038 -11.582,-11.038 -6.531,0 -11.521,4.842 -11.521,10.979"
             id="path3265"
             style="fill:#ed1c24;fill-opacity:1;fill-rule:nonzero;stroke:none" /></g><g
           transform="translate(307.3388,318.8784)"
           id="g3267"><path
             d="m 0,0 c 1.811,0 3.022,0.811 3.022,2.325 l 0,0.062 C 3.022,3.93 1.905,4.71 0.031,4.71 l -1.936,0 0,-4.71 L 0,0 z m -8.986,10.365 9.529,0 c 5.623,0 9.463,-2.508 9.463,-7.527 l 0,-0.058 c 0,-5.113 -3.902,-7.833 -9.614,-7.833 l -2.297,0 0,-5.742 -7.081,0 0,21.16 z"
             id="path3269"
             style="fill:#ed1c24;fill-opacity:1;fill-rule:nonzero;stroke:none" /></g><g
           transform="translate(334.3503,318.6051)"
           id="g3271"><path
             d="m 0,0 0,0.059 c 0,2.508 -1.728,4.778 -4.447,4.778 -2.69,0 -4.384,-2.239 -4.384,-4.716 l 0,-0.062 c 0,-2.513 1.723,-4.777 4.444,-4.777 C -1.695,-4.718 0,-2.483 0,0 m -15.968,0 0,0.059 c 0,6.135 5.05,11.035 11.581,11.035 6.53,0 11.52,-4.84 11.52,-10.973 l 0,-0.062 c 0,-6.138 -5.051,-11.038 -11.58,-11.038 -6.528,0 -11.521,4.842 -11.521,10.979"
             id="path3273"
             style="fill:#ed1c24;fill-opacity:1;fill-rule:nonzero;stroke:none" /></g><g
           transform="translate(343.4305,329.244)"
           id="g3275"><path
             d="m 0,0 7.076,0 0,-15.119 9.944,0 0,-6.043 -17.02,0 L 0,0 z"
             id="path3277"
             style="fill:#ed1c24;fill-opacity:1;fill-rule:nonzero;stroke:none" /></g><g
           transform="translate(362.0034,329.244)"
           id="g3279"><path
             d="m 0,0 18.051,0 0,-5.801 -11.096,0 0,-2.147 10.338,0 0,-5.113 -10.338,0 0,-2.294 11.248,0 0,-5.807 L 0,-21.162 0,0 z"
             id="path3281"
             style="fill:#ed1c24;fill-opacity:1;fill-rule:nonzero;stroke:none" /></g><g
           transform="translate(660.0134,392.2428)"
           id="g3283"><path
             d="m 0,0 17.894,0 0,-1.574 -16.006,0 0,-9.098 14.392,0 0,-1.546 -14.392,0 0,-9.274 16.183,0 0,-1.584 L 0,-23.076 0,0 z"
             id="path3285"
             style="fill:#ed1c24;fill-opacity:1;fill-rule:nonzero;stroke:none" /></g><g
           transform="translate(683.6932,378.7592)"
           id="g3287"><path
             d="m 0,0 0,13.483 1.861,0 0,-13.301 c 0,-5.443 3.201,-8.581 8.499,-8.581 5.124,0 8.372,2.84 8.372,8.399 l 0,13.483 1.884,0 0,-13.284 C 20.616,-6.42 16.395,-9.959 10.287,-9.959 4.268,-9.959 0,-6.454 0,0"
             id="path3289"
             style="fill:#ed1c24;fill-opacity:1;fill-rule:nonzero;stroke:none" /></g><g
           transform="translate(721.7147,380.2772)"
           id="g3291"><path
             d="m 0,0 c 4.212,0 7.314,1.934 7.314,5.283 l 0,0.052 c 0,3.116 -2.647,5.057 -7.208,5.057 l -8.575,0 L -8.469,0 0,0 z m -10.331,11.965 10.548,0 c 3.087,0 5.584,-0.901 7.097,-2.264 C 8.486,8.612 9.195,7.059 9.195,5.427 l 0,-0.092 c 0,-3.846 -3.112,-6.072 -7.363,-6.579 l 8.288,-9.867 -2.357,0 -8.014,9.564 -8.218,0 0,-9.564 -1.862,0 0,23.076 z"
             id="path3293"
             style="fill:#ed1c24;fill-opacity:1;fill-rule:nonzero;stroke:none" /></g><g
           transform="translate(759.5703,380.6307)"
           id="g3295"><path
             d="m 0,0 0,0.079 c 0,5.702 -4.521,10.387 -10.748,10.387 -6.193,0 -10.636,-4.611 -10.636,-10.329 l 0,-0.058 c 0,-5.705 4.508,-10.385 10.712,-10.385 C -4.472,-10.306 0,-5.684 0,0 m -23.323,0 0,0.079 c 0,6.305 5.037,11.92 12.651,11.92 7.621,0 12.609,-5.568 12.609,-11.862 l 0,-0.058 c 0,-6.312 -5.075,-11.932 -12.685,-11.932 -7.588,0 -12.575,5.564 -12.575,11.853"
             id="path3297"
             style="fill:#ed1c24;fill-opacity:1;fill-rule:nonzero;stroke:none" /></g><g
           transform="translate(776.6269,379.3534)"
           id="g3299"><path
             d="m 0,0 c 4.669,0 7.823,2.219 7.823,5.655 l 0,0.074 c 0,3.663 -3.08,5.588 -7.597,5.588 l -7.119,0 L -6.893,0 0,0 z m -8.748,12.889 9.125,0 c 5.502,0 9.315,-2.602 9.315,-7.052 l 0,-0.051 c 0,-4.862 -4.552,-7.371 -9.786,-7.371 l -6.799,0 0,-8.601 -1.855,0 0,23.075 z"
             id="path3301"
             style="fill:#ed1c24;fill-opacity:1;fill-rule:nonzero;stroke:none" /></g><g
           transform="translate(803.4645,398.2808)"
           id="g3303"><path
             d="m 0,0 2.121,-0.932 -3.852,-2.953 -1.611,0 L 0,0 z m -11.595,-6.038 17.869,0 0,-1.574 -16.018,0 0,-9.098 14.404,0 0,-1.545 -14.404,0 0,-9.275 16.191,0 0,-1.583 -18.042,0 0,23.075 z"
             id="path3305"
             style="fill:#ed1c24;fill-opacity:1;fill-rule:nonzero;stroke:none" /></g><g
           transform="translate(815.9247,392.2428)"
           id="g3307"><path
             d="m 0,0 17.894,0 0,-1.574 -16.033,0 0,-9.098 14.388,0 0,-1.546 -14.388,0 0,-9.274 16.181,0 0,-1.584 L 0,-23.076 0,0 z"
             id="path3309"
             style="fill:#ed1c24;fill-opacity:1;fill-rule:nonzero;stroke:none" /></g><g
           transform="translate(839.981,392.2428)"
           id="g3311"><path
             d="m 0,0 1.751,0 17.356,-20.075 0,20.075 1.777,0 0,-23.076 -1.394,0 -17.688,20.503 0,-20.503 -1.802,0 L 0,0 z"
             id="path3313"
             style="fill:#ed1c24;fill-opacity:1;fill-rule:nonzero;stroke:none" /></g><g
           transform="translate(868.3378,392.2428)"
           id="g3315"><path
             d="m 0,0 1.757,0 17.364,-20.075 0,20.075 1.781,0 0,-23.076 -1.391,0 -17.697,20.503 0,-20.503 -1.814,0 L 0,0 z"
             id="path3317"
             style="fill:#ed1c24;fill-opacity:1;fill-rule:nonzero;stroke:none" /></g><g
           transform="translate(896.7225,392.2428)"
           id="g3319"><path
             d="m 0,0 17.876,0 0,-1.574 -16.013,0 0,-9.098 14.386,0 0,-1.546 -14.386,0 0,-9.274 16.179,0 0,-1.584 L 0,-23.076 0,0 z"
             id="path3321"
             style="fill:#ed1c24;fill-opacity:1;fill-rule:nonzero;stroke:none" /></g><g
           transform="translate(933.4523,390.6692)"
           id="g3323"><path
             d="m 0,0 0,-19.918 6.503,0 c 7.018,0 11.447,4.378 11.447,9.88 l 0,0.079 C 17.95,-4.505 13.521,0 6.503,0 L 0,0 z m -1.849,1.574 8.352,0 c 7.906,0 13.395,-4.963 13.395,-11.475 l 0,-0.058 c 0,-6.499 -5.489,-11.544 -13.395,-11.544 l -8.352,0 0,23.077 z"
             id="path3325"
             style="fill:#ed1c24;fill-opacity:1;fill-rule:nonzero;stroke:none" /></g><g
           transform="translate(959.7144,392.2428)"
           id="g3327"><path
             d="m 0,0 17.903,0 0,-1.574 -16.024,0 0,-9.098 14.395,0 0,-1.546 -14.395,0 0,-9.274 16.19,0 0,-1.584 L 0,-23.076 0,0 z"
             id="path3329"
             style="fill:#ed1c24;fill-opacity:1;fill-rule:nonzero;stroke:none" /></g><g
           transform="translate(994.5612,392.2428)"
           id="g3331"><path
             d="m 0,0 1.878,0 0,-21.492 14.741,0 0,-1.584 L 0,-23.076 0,0 z"
             id="path3333"
             style="fill:#ed1c24;fill-opacity:1;fill-rule:nonzero;stroke:none" /></g><path
           d="m 1017.033,392.243 1.87,0 0,-23.076 -1.87,0 0,23.076 z"
           id="path3335"
           style="fill:#ed1c24;fill-opacity:1;fill-rule:nonzero;stroke:none" /><g
           transform="translate(1026.6326,392.2428)"
           id="g3337"><path
             d="m 0,0 1.858,0 0,-21.492 14.759,0 0,-1.584 L 0,-23.076 0,0 z"
             id="path3339"
             style="fill:#ed1c24;fill-opacity:1;fill-rule:nonzero;stroke:none" /></g><g
           transform="translate(1048.8767,392.2428)"
           id="g3341"><path
             d="m 0,0 1.847,0 0,-21.492 14.747,0 0,-1.584 L 0,-23.076 0,0 z"
             id="path3343"
             style="fill:#ed1c24;fill-opacity:1;fill-rule:nonzero;stroke:none" /></g><g
           transform="translate(1071.1079,392.2428)"
           id="g3345"><path
             d="m 0,0 17.849,0 0,-1.574 -16,0 0,-9.098 14.379,0 0,-1.546 -14.379,0 0,-9.274 16.193,0 0,-1.584 L 0,-23.076 0,0 z"
             id="path3347"
             style="fill:#ed1c24;fill-opacity:1;fill-rule:nonzero;stroke:none" /></g><g
           transform="translate(660.0425,456.9652)"
           id="g3349"><path
             d="M 0,0 16.251,0 26.235,-16.383 36.234,0 l 16.252,0 0,-46.615 -15.514,0 0,23.106 -10.737,-16.589 -0.251,0 -10.737,16.589 0,-23.106 L 0,-46.615 0,0 z"
             id="path3351"
             style="fill:#ed1c24;fill-opacity:1;fill-rule:nonzero;stroke:none" /></g><g
           transform="translate(738.4647,470.7593)"
           id="g3353"><path
             d="m 0,0 15.39,-3.47 -10.654,-7.657 -11.131,0 L 0,0 z m -20.575,-13.794 39.765,0 0,-12.782 -24.444,0 0,-4.725 22.781,0 0,-11.275 -22.781,0 0,-5.05 24.776,0 0,-12.783 -40.097,0 0,46.615 z"
             id="path3355"
             style="fill:#ed1c24;fill-opacity:1;fill-rule:nonzero;stroke:none" /></g><g
           transform="translate(774.1225,443.7778)"
           id="g3357"><path
             d="m 0,0 -13.718,0 0,13.187 43.046,0 0,-13.187 -13.736,0 0,-33.428 L 0,-33.428 0,0 z"
             id="path3359"
             style="fill:#ed1c24;fill-opacity:1;fill-rule:nonzero;stroke:none" /></g><g
           transform="translate(829.3157,434.7964)"
           id="g3361"><path
             d="m 0,0 c 3.723,0 5.982,1.656 5.982,4.526 l 0,0.136 c 0,2.997 -2.33,4.457 -5.93,4.457 l -6.783,0 L -6.731,0 0,0 z m -22.328,22.169 22.788,0 c 8.253,0 13.516,-2.071 16.786,-5.33 2.796,-2.791 4.27,-6.252 4.27,-11.053 l 0,-0.131 c 0,-6.791 -3.546,-11.521 -9.208,-14.254 l 10.861,-15.847 -17.789,0 -8.787,13.306 -3.324,0 0,-13.306 -15.597,0 0,46.615 z"
             id="path3363"
             style="fill:#ed1c24;fill-opacity:1;fill-rule:nonzero;stroke:none" /></g><g
           transform="translate(888.7443,433.5356)"
           id="g3365"><path
             d="m 0,0 0,0.125 c 0,5.522 -3.795,10.522 -9.782,10.522 -5.933,0 -9.668,-4.929 -9.668,-10.391 l 0,-0.131 c 0,-5.536 3.804,-10.528 9.793,-10.528 C -3.725,-10.403 0,-5.48 0,0 m -35.178,0 0,0.125 c 0,13.512 11.136,24.305 25.521,24.305 14.375,0 25.381,-10.662 25.381,-24.174 l 0,-0.131 c 0,-13.529 -11.131,-24.315 -25.506,-24.315 -14.399,0 -25.396,10.66 -25.396,24.19"
             id="path3367"
             style="fill:#ed1c24;fill-opacity:1;fill-rule:nonzero;stroke:none" /></g><g
           transform="translate(928.5721,434.1281)"
           id="g3369"><path
             d="m 0,0 c 3.997,0 6.671,1.786 6.671,5.124 l 0,0.139 c 0,3.394 -2.464,5.122 -6.603,5.122 l -4.271,0 L -4.203,0 0,0 z m -19.822,22.837 21.021,0 c 12.405,0 20.887,-5.517 20.887,-16.581 l 0,-0.139 c 0,-11.252 -8.617,-17.244 -21.225,-17.244 l -5.064,0 0,-12.651 -15.619,0 0,46.615 z"
             id="path3371"
             style="fill:#ed1c24;fill-opacity:1;fill-rule:nonzero;stroke:none" /></g><g
           transform="translate(988.1415,433.5356)"
           id="g3373"><path
             d="m 0,0 0,0.125 c 0,5.522 -3.801,10.522 -9.795,10.522 -5.938,0 -9.664,-4.929 -9.664,-10.391 l 0,-0.131 c 0,-5.536 3.8,-10.528 9.794,-10.528 C -3.732,-10.403 0,-5.48 0,0 m -35.198,0 0,0.125 c 0,13.512 11.14,24.305 25.533,24.305 14.381,0 25.392,-10.662 25.392,-24.174 l 0,-0.131 c 0,-13.529 -11.141,-24.315 -25.522,-24.315 -14.387,0 -25.403,10.66 -25.403,24.19"
             id="path3375"
             style="fill:#ed1c24;fill-opacity:1;fill-rule:nonzero;stroke:none" /></g><g
           transform="translate(1008.1462,456.9652)"
           id="g3377"><path
             d="m 0,0 15.601,0 0,-33.309 21.898,0 0,-13.306 L 0,-46.615 0,0 z"
             id="path3379"
             style="fill:#ed1c24;fill-opacity:1;fill-rule:nonzero;stroke:none" /></g><g
           transform="translate(1049.0688,456.9652)"
           id="g3381"><path
             d="m 0,0 39.774,0 0,-12.783 -24.444,0 0,-4.725 22.765,0 0,-11.275 -22.765,0 0,-5.05 24.776,0 0,-12.782 L 0,-46.615 0,0 z"
             id="path3383"
             style="fill:#ed1c24;fill-opacity:1;fill-rule:nonzero;stroke:none" /></g><g
           transform="translate(564.1036,392.1045)"
           id="g3385"><path
             d="m 0,0 -47.588,0 0,55.33 47.187,0 0,-15.175 -29.008,0 0,-5.613 27.033,0 0,-13.357 -27.033,0 0,-6.008 L 0,15.177 0,0 z m 49.506,15.807 0,92.683 -165.743,0 0,-53.16 19.289,0 11.855,-19.447 11.856,19.447 19.288,0 0,-55.33 -18.419,0 0,27.427 -12.725,-19.68 -0.316,0 -12.725,19.68 0,-27.427 -18.103,0 0,-53.162 165.743,0 0,53.162 -44.505,0 0,55.33 18.497,0 0,-39.523 26.008,0 z"
             id="path3387"
             style="fill:#ed1c24;fill-opacity:1;fill-rule:nonzero;stroke:none" /></g><g
           transform="translate(322.0822,133.5403)"
           id="g3389"><path
             d="m 0,0 -55.985,0 0,65.094 55.514,0 0,-17.856 -34.125,0 0,-6.601 31.803,0 0,-15.715 -31.803,0 0,-7.068 L 0,17.854 0,0 z m 58.239,18.596 0,109.035 -194.985,0 0,-62.537 22.695,0 13.945,-22.879 13.946,22.879 22.694,0 0,-65.094 -21.672,0 0,32.267 -14.968,-23.153 -0.37,0 -14.971,23.153 0,-32.267 -21.299,0 0,-62.541 194.985,0 0,62.541 -52.357,0 0,65.094 21.761,0 0,-46.498 30.596,0 z"
             id="path3391"
             style="fill:#ed1c24;fill-opacity:1;fill-rule:nonzero;stroke:none" /></g><g
           transform="translate(185.4535,31.925)"
           id="g3393"><path
             d="m 0,0 8.119,0 0,-0.715 -7.267,0 0,-4.127 6.534,0 0,-0.704 -6.534,0 0,-4.207 7.348,0 0,-0.721 -8.2,0 L 0,0 z"
             id="path3395"
             style="fill:#ed1c24;fill-opacity:1;fill-rule:nonzero;stroke:none" /></g><g
           transform="translate(196.2034,25.8035)"
           id="g3397"><path
             d="m 0,0 0,6.122 0.84,0 0,-6.041 c 0,-2.471 1.455,-3.894 3.861,-3.894 2.32,0 3.799,1.293 3.799,3.813 l 0,6.122 0.852,0 0,-6.03 C 9.352,-2.916 7.439,-4.521 4.671,-4.521 1.935,-4.521 0,-2.928 0,0"
             id="path3399"
             style="fill:#ed1c24;fill-opacity:1;fill-rule:nonzero;stroke:none" /></g><g
           transform="translate(213.4567,26.4937)"
           id="g3401"><path
             d="m 0,0 c 1.912,0 3.318,0.876 3.318,2.396 l 0,0.025 c 0,1.412 -1.197,2.295 -3.269,2.295 l -3.889,0 L -3.84,0 0,0 z m -4.689,5.431 4.792,0 C 1.502,5.431 2.63,5.023 3.318,4.404 3.851,3.907 4.176,3.201 4.176,2.461 l 0,-0.04 c 0,-1.746 -1.415,-2.759 -3.347,-2.984 l 3.762,-4.48 -1.067,0 -3.634,4.337 -3.73,0 0,-4.337 -0.849,0 0,10.474 z"
             id="path3403"
             style="fill:#ed1c24;fill-opacity:1;fill-rule:nonzero;stroke:none" /></g><g
           transform="translate(230.6422,26.6577)"
           id="g3405"><path
             d="m 0,0 0,0.031 c 0,2.587 -2.056,4.714 -4.878,4.714 -2.813,0 -4.826,-2.093 -4.826,-4.687 l 0,-0.027 c 0,-2.589 2.043,-4.716 4.864,-4.716 2.811,0 4.84,2.1 4.84,4.685 m -10.589,0 0,0.031 c 0,2.863 2.289,5.409 5.749,5.409 3.453,0 5.719,-2.528 5.719,-5.382 l 0,-0.027 c 0,-2.864 -2.303,-5.415 -5.757,-5.415 -3.449,0 -5.711,2.524 -5.711,5.384"
             id="path3407"
             style="fill:#ed1c24;fill-opacity:1;fill-rule:nonzero;stroke:none" /></g><g
           transform="translate(238.3824,26.0732)"
           id="g3409"><path
             d="m 0,0 c 2.12,0 3.553,1.011 3.553,2.566 l 0,0.034 c 0,1.661 -1.399,2.536 -3.448,2.536 l -3.238,0 L -3.133,0 0,0 z m -3.972,5.852 4.143,0 C 2.67,5.852 4.4,4.669 4.4,2.647 l 0,-0.022 c 0,-2.204 -2.066,-3.349 -4.442,-3.349 l -3.091,0 0,-3.898 -0.839,0 0,10.474 z"
             id="path3411"
             style="fill:#ed1c24;fill-opacity:1;fill-rule:nonzero;stroke:none" /></g><g
           transform="translate(250.5621,34.6614)"
           id="g3413"><path
             d="m 0,0 0.964,-0.422 -1.749,-1.338 -0.73,0 L 0,0 z m -5.258,-2.737 8.107,0 0,-0.715 -7.265,0 0,-4.126 6.534,0 0,-0.705 -6.534,0 0,-4.207 7.348,0 0,-0.721 -8.19,0 0,10.474 z"
             id="path3415"
             style="fill:#ed1c24;fill-opacity:1;fill-rule:nonzero;stroke:none" /></g><g
           transform="translate(256.2192,31.925)"
           id="g3417"><path
             d="m 0,0 8.121,0 0,-0.715 -7.28,0 0,-4.127 6.534,0 0,-0.704 -6.534,0 0,-4.207 7.35,0 0,-0.721 -8.191,0 L 0,0 z"
             id="path3419"
             style="fill:#ed1c24;fill-opacity:1;fill-rule:nonzero;stroke:none" /></g><g
           transform="translate(267.1401,31.925)"
           id="g3421"><path
             d="m 0,0 0.796,0 7.876,-9.114 0,9.114 0.808,0 0,-10.474 -0.637,0 -8.023,9.304 0,-9.304 -0.82,0 L 0,0 z"
             id="path3423"
             style="fill:#ed1c24;fill-opacity:1;fill-rule:nonzero;stroke:none" /></g><g
           transform="translate(280.011,31.925)"
           id="g3425"><path
             d="m 0,0 0.8,0 7.879,-9.114 0,9.114 0.809,0 0,-10.474 -0.632,0 -8.033,9.304 0,-9.304 -0.823,0 L 0,0 z"
             id="path3427"
             style="fill:#ed1c24;fill-opacity:1;fill-rule:nonzero;stroke:none" /></g><g
           transform="translate(292.897,31.925)"
           id="g3429"><path
             d="m 0,0 8.115,0 0,-0.715 -7.272,0 0,-4.127 6.532,0 0,-0.704 -6.532,0 0,-4.207 7.345,0 0,-0.721 -8.188,0 L 0,0 z"
             id="path3431"
             style="fill:#ed1c24;fill-opacity:1;fill-rule:nonzero;stroke:none" /></g><g
           transform="translate(309.5498,31.2101)"
           id="g3433"><path
             d="m 0,0 0,-9.038 2.946,0 c 3.182,0 5.188,1.986 5.188,4.486 l 0,0.031 C 8.134,-2.046 6.128,0 2.946,0 L 0,0 z m -0.84,0.715 3.786,0 c 3.586,0 6.07,-2.255 6.07,-5.209 l 0,-0.027 c 0,-2.95 -2.484,-5.238 -6.07,-5.238 l -3.786,0 0,10.474 z"
             id="path3435"
             style="fill:#ed1c24;fill-opacity:1;fill-rule:nonzero;stroke:none" /></g><g
           transform="translate(321.4528,31.925)"
           id="g3437"><path
             d="m 0,0 8.114,0 0,-0.715 -7.265,0 0,-4.127 6.53,0 0,-0.704 -6.53,0 0,-4.207 7.346,0 0,-0.721 -8.195,0 L 0,0 z"
             id="path3439"
             style="fill:#ed1c24;fill-opacity:1;fill-rule:nonzero;stroke:none" /></g><g
           transform="translate(337.2637,31.925)"
           id="g3441"><path
             d="m 0,0 0.85,0 0,-9.753 6.69,0 0,-0.721 -7.54,0 L 0,0 z"
             id="path3443"
             style="fill:#ed1c24;fill-opacity:1;fill-rule:nonzero;stroke:none" /></g><path
           d="m 347.461,31.924 0.85,0 0,-10.474 -0.85,0 0,10.474 z"
           id="path3445"
           style="fill:#ed1c24;fill-opacity:1;fill-rule:nonzero;stroke:none" /><g
           transform="translate(351.8186,31.925)"
           id="g3447"><path
             d="m 0,0 0.841,0 0,-9.753 6.702,0 0,-0.721 -7.543,0 L 0,0 z"
             id="path3449"
             style="fill:#ed1c24;fill-opacity:1;fill-rule:nonzero;stroke:none" /></g><g
           transform="translate(361.9144,31.925)"
           id="g3451"><path
             d="m 0,0 0.84,0 0,-9.753 6.692,0 0,-0.721 -7.532,0 L 0,0 z"
             id="path3453"
             style="fill:#ed1c24;fill-opacity:1;fill-rule:nonzero;stroke:none" /></g><g
           transform="translate(372.0074,31.925)"
           id="g3455"><path
             d="m 0,0 8.105,0 0,-0.715 -7.267,0 0,-4.127 6.525,0 0,-0.704 -6.525,0 0,-4.207 7.35,0 0,-0.721 -8.188,0 L 0,0 z"
             id="path3457"
             style="fill:#ed1c24;fill-opacity:1;fill-rule:nonzero;stroke:none" /></g><g
           transform="translate(185.4624,61.3008)"
           id="g3459"><path
             d="M 0,0 7.377,0 11.912,-7.439 16.45,0 l 7.377,0 0,-21.162 -7.045,0 0,10.492 -4.87,-7.529 -0.117,0 -4.871,7.529 0,-10.492 -6.924,0 L 0,0 z"
             id="path3461"
             style="fill:#ed1c24;fill-opacity:1;fill-rule:nonzero;stroke:none" /></g><g
           transform="translate(221.0602,67.5627)"
           id="g3463"><path
             d="m 0,0 6.985,-1.576 -4.837,-3.477 -5.049,0 L 0,0 z m -9.338,-6.261 18.049,0 0,-5.801 -11.098,0 0,-2.151 10.342,0 0,-5.111 -10.342,0 0,-2.295 11.248,0 0,-5.804 -18.199,0 0,21.162 z"
             id="path3465"
             style="fill:#ed1c24;fill-opacity:1;fill-rule:nonzero;stroke:none" /></g><g
           transform="translate(237.2504,55.3166)"
           id="g3467"><path
             d="m 0,0 -6.231,0 0,5.983 19.535,0 0,-5.983 -6.23,0 0,-15.177 -7.074,0 L 0,0 z"
             id="path3469"
             style="fill:#ed1c24;fill-opacity:1;fill-rule:nonzero;stroke:none" /></g><g
           transform="translate(262.2977,51.2341)"
           id="g3471"><path
             d="m 0,0 c 1.688,0 2.715,0.753 2.715,2.056 l 0,0.06 c 0,1.359 -1.058,2.027 -2.692,2.027 l -3.08,0 L -3.057,0 0,0 z m -10.132,10.067 10.34,0 C 3.956,10.067 6.346,9.128 7.827,7.65 9.096,6.38 9.764,4.808 9.764,2.629 l 0,-0.058 c 0,-3.086 -1.603,-5.229 -4.174,-6.469 l 4.927,-7.197 -8.072,0 -3.991,6.043 -1.511,0 0,-6.043 -7.075,0 0,21.162 z"
             id="path3473"
             style="fill:#ed1c24;fill-opacity:1;fill-rule:nonzero;stroke:none" /></g><g
           transform="translate(289.2719,50.6619)"
           id="g3475"><path
             d="m 0,0 0,0.058 c 0,2.509 -1.721,4.781 -4.443,4.781 -2.69,0 -4.386,-2.241 -4.386,-4.72 l 0,-0.061 c 0,-2.512 1.726,-4.776 4.447,-4.776 C -1.69,-4.718 0,-2.482 0,0 m -15.964,0 0,0.058 c 0,6.137 5.055,11.037 11.582,11.037 6.529,0 11.521,-4.843 11.521,-10.976 l 0,-0.061 c 0,-6.137 -5.054,-11.037 -11.582,-11.037 -6.531,0 -11.521,4.842 -11.521,10.979"
             id="path3477"
             style="fill:#ed1c24;fill-opacity:1;fill-rule:nonzero;stroke:none" /></g><g
           transform="translate(307.3388,50.9352)"
           id="g3479"><path
             d="m 0,0 c 1.811,0 3.022,0.811 3.022,2.325 l 0,0.062 c 0,1.542 -1.117,2.325 -2.991,2.325 l -1.936,0 L -1.905,0 0,0 z m -8.986,10.365 9.529,0 c 5.623,0 9.463,-2.508 9.463,-7.527 l 0,-0.059 c 0,-5.112 -3.902,-7.832 -9.614,-7.832 l -2.297,0 0,-5.742 -7.081,0 0,21.16 z"
             id="path3481"
             style="fill:#ed1c24;fill-opacity:1;fill-rule:nonzero;stroke:none" /></g><g
           transform="translate(334.3503,50.6619)"
           id="g3483"><path
             d="m 0,0 0,0.058 c 0,2.509 -1.728,4.781 -4.447,4.781 -2.692,0 -4.385,-2.241 -4.385,-4.72 l 0,-0.061 c 0,-2.512 1.724,-4.776 4.445,-4.776 C -1.695,-4.718 0,-2.482 0,0 m -15.968,0 0,0.058 c 0,6.137 5.049,11.037 11.581,11.037 6.528,0 11.519,-4.843 11.519,-10.976 l 0,-0.061 c 0,-6.137 -5.05,-11.037 -11.579,-11.037 -6.528,0 -11.521,4.842 -11.521,10.979"
             id="path3485"
             style="fill:#ed1c24;fill-opacity:1;fill-rule:nonzero;stroke:none" /></g><g
           transform="translate(343.4305,61.3008)"
           id="g3487"><path
             d="m 0,0 7.076,0 0,-15.119 9.944,0 0,-6.043 -17.02,0 L 0,0 z"
             id="path3489"
             style="fill:#ed1c24;fill-opacity:1;fill-rule:nonzero;stroke:none" /></g><g
           transform="translate(362.0026,61.3008)"
           id="g3491"><path
             d="m 0,0 18.051,0 0,-5.801 -11.095,0 0,-2.148 10.338,0 0,-5.112 -10.338,0 0,-2.296 11.247,0 0,-5.805 L 0,-21.162 0,0 z"
             id="path3493"
             style="fill:#ed1c24;fill-opacity:1;fill-rule:nonzero;stroke:none" /></g><g
           transform="translate(660.0126,124.3004)"
           id="g3495"><path
             d="m 0,0 17.894,0 0,-1.574 -16.006,0 0,-9.098 14.393,0 0,-1.546 -14.393,0 0,-9.272 16.183,0 0,-1.587 L 0,-23.077 0,0 z"
             id="path3497"
             style="fill:#ed1c24;fill-opacity:1;fill-rule:nonzero;stroke:none" /></g><g
           transform="translate(683.6926,110.8169)"
           id="g3499"><path
             d="m 0,0 0,13.483 1.863,0 0,-13.301 c 0,-5.445 3.201,-8.581 8.495,-8.581 5.126,0 8.372,2.838 8.372,8.399 l 0,13.483 1.888,0 0,-13.284 c 0,-6.619 -4.223,-10.16 -10.33,-10.16 C 4.268,-9.961 0,-6.455 0,0"
             id="path3501"
             style="fill:#ed1c24;fill-opacity:1;fill-rule:nonzero;stroke:none" /></g><g
           transform="translate(721.7137,112.3341)"
           id="g3503"><path
             d="m 0,0 c 4.212,0 7.314,1.934 7.314,5.284 l 0,0.051 c 0,3.116 -2.647,5.057 -7.209,5.057 l -8.573,0 L -8.468,0 0,0 z m -10.331,11.967 10.548,0 c 3.087,0 5.584,-0.903 7.097,-2.265 1.172,-1.09 1.881,-2.643 1.881,-4.275 l 0,-0.092 c 0,-3.846 -3.112,-6.072 -7.363,-6.579 l 8.288,-9.867 -2.358,0 -8.013,9.564 -8.217,0 0,-9.564 -1.863,0 0,23.078 z"
             id="path3505"
             style="fill:#ed1c24;fill-opacity:1;fill-rule:nonzero;stroke:none" /></g><g
           transform="translate(759.572,112.6876)"
           id="g3507"><path
             d="m 0,0 0,0.081 c 0,5.7 -4.523,10.385 -10.751,10.385 -6.193,0 -10.635,-4.611 -10.635,-10.329 l 0,-0.056 c 0,-5.705 4.509,-10.387 10.71,-10.387 C -4.472,-10.306 0,-5.684 0,0 m -23.325,0 0,0.081 c 0,6.305 5.038,11.92 12.649,11.92 7.623,0 12.611,-5.57 12.611,-11.864 l 0,-0.056 c 0,-6.312 -5.075,-11.934 -12.686,-11.934 -7.589,0 -12.574,5.563 -12.574,11.853"
             id="path3509"
             style="fill:#ed1c24;fill-opacity:1;fill-rule:nonzero;stroke:none" /></g><g
           transform="translate(776.626,111.4111)"
           id="g3511"><path
             d="m 0,0 c 4.669,0 7.821,2.217 7.821,5.653 l 0,0.076 c 0,3.663 -3.078,5.586 -7.595,5.586 l -7.117,0 L -6.891,0 0,0 z m -8.748,12.889 9.125,0 c 5.505,0 9.316,-2.601 9.316,-7.052 l 0,-0.051 c 0,-4.863 -4.551,-7.373 -9.787,-7.373 l -6.797,0 0,-8.601 -1.857,0 0,23.077 z"
             id="path3513"
             style="fill:#ed1c24;fill-opacity:1;fill-rule:nonzero;stroke:none" /></g><g
           transform="translate(803.4627,130.3384)"
           id="g3515"><path
             d="m 0,0 2.123,-0.932 -3.855,-2.953 -1.608,0 L 0,0 z m -11.591,-6.038 17.867,0 0,-1.574 -16.02,0 0,-9.098 14.406,0 0,-1.545 -14.406,0 0,-9.275 16.195,0 0,-1.585 -18.042,0 0,23.077 z"
             id="path3517"
             style="fill:#ed1c24;fill-opacity:1;fill-rule:nonzero;stroke:none" /></g><g
           transform="translate(815.9229,124.3004)"
           id="g3519"><path
             d="m 0,0 17.896,0 0,-1.574 -16.035,0 0,-9.098 14.388,0 0,-1.546 -14.388,0 0,-9.272 16.181,0 0,-1.587 L 0,-23.077 0,0 z"
             id="path3521"
             style="fill:#ed1c24;fill-opacity:1;fill-rule:nonzero;stroke:none" /></g><g
           transform="translate(839.9793,124.3004)"
           id="g3523"><path
             d="m 0,0 1.755,0 17.352,-20.075 0,20.075 1.778,0 0,-23.077 -1.395,0 -17.686,20.504 0,-20.504 -1.804,0 L 0,0 z"
             id="path3525"
             style="fill:#ed1c24;fill-opacity:1;fill-rule:nonzero;stroke:none" /></g><g
           transform="translate(868.3359,124.3004)"
           id="g3527"><path
             d="m 0,0 1.757,0 17.365,-20.075 0,20.075 1.78,0 0,-23.077 -1.389,0 -17.695,20.504 0,-20.504 -1.818,0 L 0,0 z"
             id="path3529"
             style="fill:#ed1c24;fill-opacity:1;fill-rule:nonzero;stroke:none" /></g><g
           transform="translate(896.7225,124.3004)"
           id="g3531"><path
             d="m 0,0 17.874,0 0,-1.574 -16.011,0 0,-9.098 14.386,0 0,-1.546 -14.386,0 0,-9.272 16.179,0 0,-1.587 L 0,-23.077 0,0 z"
             id="path3533"
             style="fill:#ed1c24;fill-opacity:1;fill-rule:nonzero;stroke:none" /></g><g
           transform="translate(933.4523,122.7261)"
           id="g3535"><path
             d="m 0,0 0,-19.916 6.503,0 c 7.018,0 11.445,4.378 11.445,9.878 l 0,0.081 C 17.948,-4.503 13.521,0 6.503,0 L 0,0 z m -1.849,1.574 8.352,0 c 7.906,0 13.395,-4.963 13.395,-11.475 l 0,-0.056 c 0,-6.502 -5.489,-11.546 -13.395,-11.546 l -8.352,0 0,23.077 z"
             id="path3537"
             style="fill:#ed1c24;fill-opacity:1;fill-rule:nonzero;stroke:none" /></g><g
           transform="translate(959.7126,124.3004)"
           id="g3539"><path
             d="m 0,0 17.903,0 0,-1.574 -16.022,0 0,-9.098 14.395,0 0,-1.546 -14.395,0 0,-9.272 16.19,0 0,-1.587 L 0,-23.077 0,0 z"
             id="path3541"
             style="fill:#ed1c24;fill-opacity:1;fill-rule:nonzero;stroke:none" /></g><g
           transform="translate(994.5594,124.3004)"
           id="g3543"><path
             d="m 0,0 1.879,0 0,-21.49 14.74,0 0,-1.587 L 0,-23.077 0,0 z"
             id="path3545"
             style="fill:#ed1c24;fill-opacity:1;fill-rule:nonzero;stroke:none" /></g><path
           d="m 1017.033,124.3 1.869,0 0,-23.077 -1.869,0 0,23.077 z"
           id="path3547"
           style="fill:#ed1c24;fill-opacity:1;fill-rule:nonzero;stroke:none" /><g
           transform="translate(1026.6311,124.3004)"
           id="g3549"><path
             d="m 0,0 1.86,0 0,-21.49 14.757,0 0,-1.587 L 0,-23.077 0,0 z"
             id="path3551"
             style="fill:#ed1c24;fill-opacity:1;fill-rule:nonzero;stroke:none" /></g><g
           transform="translate(1048.8767,124.3004)"
           id="g3553"><path
             d="m 0,0 1.845,0 0,-21.49 14.749,0 0,-1.587 L 0,-23.077 0,0 z"
             id="path3555"
             style="fill:#ed1c24;fill-opacity:1;fill-rule:nonzero;stroke:none" /></g><g
           transform="translate(1071.1079,124.3004)"
           id="g3557"><path
             d="m 0,0 17.849,0 0,-1.574 -16,0 0,-9.098 14.377,0 0,-1.546 -14.377,0 0,-9.272 16.193,0 0,-1.587 L 0,-23.077 0,0 z"
             id="path3559"
             style="fill:#ed1c24;fill-opacity:1;fill-rule:nonzero;stroke:none" /></g><g
           transform="translate(660.0416,189.022)"
           id="g3561"><path
             d="M 0,0 16.251,0 26.235,-16.381 36.234,0 l 16.252,0 0,-46.613 -15.512,0 0,23.104 -10.739,-16.588 -0.249,0 -10.741,16.588 0,-23.104 L 0,-46.613 0,0 z"
             id="path3563"
             style="fill:#ed1c24;fill-opacity:1;fill-rule:nonzero;stroke:none" /></g><g
           transform="translate(738.4637,202.8159)"
           id="g3565"><path
             d="m 0,0 15.39,-3.468 -10.654,-7.661 -11.131,0 L 0,0 z m -20.575,-13.794 39.765,0 0,-12.781 -24.442,0 0,-4.725 22.779,0 0,-11.276 -22.779,0 0,-5.05 24.773,0 0,-12.781 -40.096,0 0,46.613 z"
             id="path3567"
             style="fill:#ed1c24;fill-opacity:1;fill-rule:nonzero;stroke:none" /></g><g
           transform="translate(774.1214,175.8354)"
           id="g3569"><path
             d="m 0,0 -13.718,0 0,13.187 43.046,0 0,-13.187 -13.736,0 0,-33.428 L 0,-33.428 0,0 z"
             id="path3571"
             style="fill:#ed1c24;fill-opacity:1;fill-rule:nonzero;stroke:none" /></g><g
           transform="translate(829.3157,166.8531)"
           id="g3573"><path
             d="m 0,0 c 3.721,0 5.98,1.656 5.98,4.526 l 0,0.137 c 0,2.996 -2.326,4.456 -5.929,4.456 l -6.782,0 L -6.731,0 0,0 z m -22.328,22.169 22.787,0 c 8.252,0 13.515,-2.071 16.787,-5.33 2.796,-2.791 4.27,-6.252 4.27,-11.051 l 0,-0.133 c 0,-6.791 -3.548,-11.521 -9.21,-14.254 l 10.862,-15.847 -17.788,0 -8.787,13.308 -3.324,0 0,-13.308 -15.597,0 0,46.615 z"
             id="path3575"
             style="fill:#ed1c24;fill-opacity:1;fill-rule:nonzero;stroke:none" /></g><g
           transform="translate(888.7425,165.5924)"
           id="g3577"><path
             d="m 0,0 0,0.125 c 0,5.524 -3.795,10.523 -9.78,10.523 -5.935,0 -9.667,-4.93 -9.667,-10.392 l 0,-0.131 c 0,-5.536 3.801,-10.528 9.793,-10.528 C -3.725,-10.403 0,-5.48 0,0 m -35.176,0 0,0.125 c 0,13.512 11.138,24.305 25.522,24.305 14.373,0 25.38,-10.662 25.38,-24.174 l 0,-0.131 c 0,-13.529 -11.131,-24.315 -25.506,-24.315 -14.399,0 -25.396,10.66 -25.396,24.19"
             id="path3579"
             style="fill:#ed1c24;fill-opacity:1;fill-rule:nonzero;stroke:none" /></g><g
           transform="translate(928.5703,166.1859)"
           id="g3581"><path
             d="m 0,0 c 3.999,0 6.671,1.786 6.671,5.124 l 0,0.139 c 0,3.392 -2.461,5.122 -6.599,5.122 l -4.275,0 L -4.203,0 0,0 z m -19.82,22.835 21.021,0 c 12.407,0 20.885,-5.517 20.885,-16.581 l 0,-0.137 c 0,-11.252 -8.617,-17.246 -21.223,-17.246 l -5.066,0 0,-12.649 -15.617,0 0,46.613 z"
             id="path3583"
             style="fill:#ed1c24;fill-opacity:1;fill-rule:nonzero;stroke:none" /></g><g
           transform="translate(988.1415,165.5924)"
           id="g3585"><path
             d="m 0,0 0,0.125 c 0,5.524 -3.799,10.523 -9.793,10.523 -5.94,0 -9.668,-4.93 -9.668,-10.392 l 0,-0.131 c 0,-5.536 3.802,-10.528 9.796,-10.528 C -3.73,-10.403 0,-5.48 0,0 m -35.198,0 0,0.125 c 0,13.512 11.14,24.305 25.533,24.305 14.381,0 25.39,-10.662 25.39,-24.174 l 0,-0.131 c 0,-13.529 -11.139,-24.315 -25.518,-24.315 -14.389,0 -25.405,10.66 -25.405,24.19"
             id="path3587"
             style="fill:#ed1c24;fill-opacity:1;fill-rule:nonzero;stroke:none" /></g><g
           transform="translate(1008.1462,189.022)"
           id="g3589"><path
             d="m 0,0 15.599,0 0,-33.307 21.9,0 0,-13.306 L 0,-46.613 0,0 z"
             id="path3591"
             style="fill:#ed1c24;fill-opacity:1;fill-rule:nonzero;stroke:none" /></g><g
           transform="translate(1049.0688,189.022)"
           id="g3593"><path
             d="m 0,0 39.774,0 0,-12.781 -24.444,0 0,-4.725 22.765,0 0,-11.275 -22.765,0 0,-5.051 24.776,0 0,-12.781 L 0,-46.613 0,0 z"
             id="path3595"
             style="fill:#ed1c24;fill-opacity:1;fill-rule:nonzero;stroke:none" /></g><g
           transform="translate(564.1046,124.1613)"
           id="g3597"><path
             d="m 0,0 -47.59,0 0,55.33 47.189,0 0,-15.175 -29.008,0 0,-5.613 27.033,0 0,-13.357 -27.033,0 0,-6.008 L 0,15.177 0,0 z m 49.504,15.807 0,92.685 -165.743,0 0,-53.162 19.289,0 11.855,-19.447 11.857,19.447 19.287,0 0,-55.33 -18.419,0 0,27.427 -12.725,-19.68 -0.316,0 -12.725,19.68 0,-27.427 -18.103,0 0,-53.162 165.743,0 0,53.162 -44.505,0 0,55.33 18.497,0 0,-39.523 26.008,0 z"
             id="path3599"
             style="fill:#ed1c24;fill-opacity:1;fill-rule:nonzero;stroke:none" /></g><g
           transform="translate(322.0831,-466.3147)"
           id="g3601"><path
             d="m 0,0 -55.985,0 0,65.094 55.514,0 0,-17.856 -34.127,0 0,-6.599 31.805,0 0,-15.715 -31.805,0 0,-7.07 L 0,17.854 0,0 z m 58.239,18.596 0,109.036 -194.984,0 0,-62.538 22.692,0 13.946,-22.879 13.947,22.879 22.693,0 0,-65.094 -21.671,0 0,32.267 -14.969,-23.155 -0.369,0 -14.97,23.155 0,-32.267 -21.299,0 0,-62.541 194.984,0 0,62.541 -52.357,0 0,65.094 21.761,0 0,-46.498 30.596,0 z"
             id="path3603"
             style="fill:#231f20;fill-opacity:1;fill-rule:nonzero;stroke:none" /></g><g
           transform="translate(185.4535,-567.9299)"
           id="g3605"><path
             d="m 0,0 8.119,0 0,-0.715 -7.267,0 0,-4.127 6.536,0 0,-0.704 -6.536,0 0,-4.207 7.348,0 0,-0.722 -8.2,0 L 0,0 z"
             id="path3607"
             style="fill:#231f20;fill-opacity:1;fill-rule:nonzero;stroke:none" /></g><g
           transform="translate(196.2034,-574.0516)"
           id="g3609"><path
             d="m 0,0 0,6.122 0.841,0 0,-6.041 c 0,-2.471 1.454,-3.894 3.86,-3.894 2.32,0 3.799,1.293 3.799,3.813 l 0,6.122 0.852,0 0,-6.03 C 9.352,-2.916 7.439,-4.521 4.671,-4.521 1.935,-4.521 0,-2.928 0,0"
             id="path3611"
             style="fill:#231f20;fill-opacity:1;fill-rule:nonzero;stroke:none" /></g><g
           transform="translate(213.4567,-573.3622)"
           id="g3613"><path
             d="m 0,0 c 1.912,0 3.318,0.876 3.318,2.396 l 0,0.025 c 0,1.412 -1.197,2.295 -3.269,2.295 l -3.889,0 L -3.84,0 0,0 z m -4.689,5.433 4.792,0 C 1.504,5.433 2.63,5.023 3.318,4.404 3.853,3.907 4.176,3.201 4.176,2.461 l 0,-0.04 c 0,-1.744 -1.415,-2.759 -3.345,-2.984 l 3.76,-4.48 -1.065,0 -3.636,4.337 -3.73,0 0,-4.337 -0.849,0 0,10.476 z"
             id="path3615"
             style="fill:#231f20;fill-opacity:1;fill-rule:nonzero;stroke:none" /></g><g
           transform="translate(230.6429,-573.1982)"
           id="g3617"><path
             d="m 0,0 0,0.032 c 0,2.586 -2.056,4.715 -4.878,4.715 -2.813,0 -4.828,-2.095 -4.828,-4.689 l 0,-0.026 c 0,-2.59 2.044,-4.717 4.864,-4.717 C -2.029,-4.685 0,-2.585 0,0 m -10.591,0 0,0.032 c 0,2.864 2.291,5.408 5.749,5.408 3.455,0 5.719,-2.528 5.719,-5.382 l 0,-0.026 c 0,-2.863 -2.301,-5.416 -5.755,-5.416 -3.449,0 -5.713,2.524 -5.713,5.384"
             id="path3619"
             style="fill:#231f20;fill-opacity:1;fill-rule:nonzero;stroke:none" /></g><g
           transform="translate(238.3832,-573.7817)"
           id="g3621"><path
             d="m 0,0 c 2.12,0 3.553,1.011 3.553,2.566 l 0,0.032 c 0,1.663 -1.401,2.538 -3.45,2.538 l -3.236,0 L -3.133,0 0,0 z m -3.972,5.851 4.143,0 C 2.67,5.851 4.4,4.669 4.4,2.647 l 0,-0.024 c 0,-2.204 -2.067,-3.347 -4.443,-3.347 l -3.09,0 0,-3.9 -0.839,0 0,10.475 z"
             id="path3623"
             style="fill:#231f20;fill-opacity:1;fill-rule:nonzero;stroke:none" /></g><g
           transform="translate(250.5629,-565.1935)"
           id="g3625"><path
             d="m 0,0 0.964,-0.422 -1.749,-1.338 -0.73,0 L 0,0 z m -5.259,-2.737 8.108,0 0,-0.715 -7.265,0 0,-4.126 6.532,0 0,-0.706 -6.532,0 0,-4.206 7.348,0 0,-0.721 -8.191,0 0,10.474 z"
             id="path3627"
             style="fill:#231f20;fill-opacity:1;fill-rule:nonzero;stroke:none" /></g><g
           transform="translate(256.2199,-567.9299)"
           id="g3629"><path
             d="m 0,0 8.121,0 0,-0.715 -7.28,0 0,-4.127 6.534,0 0,-0.704 -6.534,0 0,-4.207 7.35,0 0,-0.722 -8.191,0 L 0,0 z"
             id="path3631"
             style="fill:#231f20;fill-opacity:1;fill-rule:nonzero;stroke:none" /></g><g
           transform="translate(267.141,-567.9299)"
           id="g3633"><path
             d="m 0,0 0.796,0 7.876,-9.114 0,9.114 0.807,0 0,-10.475 -0.636,0 -8.025,9.305 0,-9.305 -0.818,0 L 0,0 z"
             id="path3635"
             style="fill:#231f20;fill-opacity:1;fill-rule:nonzero;stroke:none" /></g><g
           transform="translate(280.012,-567.9299)"
           id="g3637"><path
             d="m 0,0 0.8,0 7.877,-9.114 0,9.114 0.811,0 0,-10.475 -0.632,0 -8.033,9.305 0,-9.305 -0.823,0 L 0,0 z"
             id="path3639"
             style="fill:#231f20;fill-opacity:1;fill-rule:nonzero;stroke:none" /></g><g
           transform="translate(292.897,-567.9299)"
           id="g3641"><path
             d="m 0,0 8.115,0 0,-0.715 -7.27,0 0,-4.127 6.53,0 0,-0.704 -6.53,0 0,-4.207 7.343,0 0,-0.722 -8.188,0 L 0,0 z"
             id="path3643"
             style="fill:#231f20;fill-opacity:1;fill-rule:nonzero;stroke:none" /></g><g
           transform="translate(309.5498,-568.6458)"
           id="g3645"><path
             d="m 0,0 0,-9.038 2.948,0 c 3.18,0 5.186,1.988 5.186,4.486 l 0,0.031 C 8.134,-2.046 6.128,0 2.948,0 L 0,0 z m -0.84,0.715 3.788,0 c 3.584,0 6.068,-2.255 6.068,-5.209 l 0,-0.027 c 0,-2.95 -2.484,-5.238 -6.068,-5.238 l -3.788,0 0,10.474 z"
             id="path3647"
             style="fill:#231f20;fill-opacity:1;fill-rule:nonzero;stroke:none" /></g><g
           transform="translate(321.4528,-567.9299)"
           id="g3649"><path
             d="m 0,0 8.116,0 0,-0.715 -7.266,0 0,-4.127 6.529,0 0,-0.704 -6.529,0 0,-4.207 7.345,0 0,-0.722 -8.195,0 L 0,0 z"
             id="path3651"
             style="fill:#231f20;fill-opacity:1;fill-rule:nonzero;stroke:none" /></g><g
           transform="translate(337.2637,-567.9299)"
           id="g3653"><path
             d="m 0,0 0.852,0 0,-9.753 6.688,0 0,-0.722 -7.54,0 L 0,0 z"
             id="path3655"
             style="fill:#231f20;fill-opacity:1;fill-rule:nonzero;stroke:none" /></g><path
           d="m 347.463,-567.931 0.85,0 0,-10.475 -0.85,0 0,10.475 z"
           id="path3657"
           style="fill:#231f20;fill-opacity:1;fill-rule:nonzero;stroke:none" /><g
           transform="translate(351.8186,-567.9299)"
           id="g3659"><path
             d="m 0,0 0.841,0 0,-9.753 6.704,0 0,-0.722 -7.545,0 L 0,0 z"
             id="path3661"
             style="fill:#231f20;fill-opacity:1;fill-rule:nonzero;stroke:none" /></g><g
           transform="translate(361.9152,-567.9299)"
           id="g3663"><path
             d="m 0,0 0.84,0 0,-9.753 6.692,0 0,-0.722 -7.532,0 L 0,0 z"
             id="path3665"
             style="fill:#231f20;fill-opacity:1;fill-rule:nonzero;stroke:none" /></g><g
           transform="translate(372.0084,-567.9299)"
           id="g3667"><path
             d="m 0,0 8.105,0 0,-0.715 -7.267,0 0,-4.127 6.525,0 0,-0.704 -6.525,0 0,-4.207 7.348,0 0,-0.722 -8.186,0 L 0,0 z"
             id="path3669"
             style="fill:#231f20;fill-opacity:1;fill-rule:nonzero;stroke:none" /></g><g
           transform="translate(185.4633,-538.5542)"
           id="g3671"><path
             d="M 0,0 7.375,0 11.912,-7.438 16.45,0 l 7.375,0 0,-21.162 -7.043,0 0,10.492 -4.87,-7.529 -0.119,0 -4.869,7.529 0,-10.492 -6.924,0 L 0,0 z"
             id="path3673"
             style="fill:#231f20;fill-opacity:1;fill-rule:nonzero;stroke:none" /></g><g
           transform="translate(221.0612,-532.2932)"
           id="g3675"><path
             d="m 0,0 6.983,-1.576 -4.835,-3.476 -5.049,0 L 0,0 z m -9.338,-6.261 18.047,0 0,-5.801 -11.096,0 0,-2.149 10.342,0 0,-5.111 -10.342,0 0,-2.297 11.246,0 0,-5.802 -18.197,0 0,21.16 z"
             id="path3677"
             style="fill:#231f20;fill-opacity:1;fill-rule:nonzero;stroke:none" /></g><g
           transform="translate(237.2513,-544.5383)"
           id="g3679"><path
             d="m 0,0 -6.231,0 0,5.983 19.535,0 0,-5.983 -6.23,0 0,-15.177 -7.074,0 L 0,0 z"
             id="path3681"
             style="fill:#231f20;fill-opacity:1;fill-rule:nonzero;stroke:none" /></g><g
           transform="translate(262.2977,-548.62)"
           id="g3683"><path
             d="m 0,0 c 1.688,0 2.717,0.753 2.717,2.056 l 0,0.06 c 0,1.36 -1.06,2.026 -2.694,2.026 l -3.08,0 L -3.057,0 0,0 z m -10.13,10.065 10.338,0 c 3.748,0 6.138,-0.937 7.619,-2.417 C 9.098,6.38 9.764,4.806 9.764,2.627 l 0,-0.056 c 0,-3.086 -1.603,-5.23 -4.173,-6.469 l 4.926,-7.198 -8.072,0 -3.991,6.044 -1.511,0 0,-6.044 -7.073,0 0,21.161 z"
             id="path3685"
             style="fill:#231f20;fill-opacity:1;fill-rule:nonzero;stroke:none" /></g><g
           transform="translate(289.2719,-549.193)"
           id="g3687"><path
             d="m 0,0 0,0.058 c 0,2.509 -1.721,4.781 -4.443,4.781 -2.69,0 -4.386,-2.241 -4.386,-4.72 l 0,-0.061 c 0,-2.51 1.726,-4.776 4.447,-4.776 C -1.69,-4.718 0,-2.481 0,0 m -15.964,0 0,0.058 c 0,6.137 5.055,11.036 11.582,11.036 6.529,0 11.521,-4.842 11.521,-10.975 l 0,-0.061 c 0,-6.137 -5.052,-11.037 -11.582,-11.037 -6.531,0 -11.521,4.842 -11.521,10.979"
             id="path3689"
             style="fill:#231f20;fill-opacity:1;fill-rule:nonzero;stroke:none" /></g><g
           transform="translate(307.3388,-548.9197)"
           id="g3691"><path
             d="m 0,0 c 1.811,0 3.022,0.811 3.022,2.325 l 0,0.06 c 0,1.544 -1.117,2.325 -2.991,2.325 l -1.936,0 0,-4.71 L 0,0 z m -8.984,10.365 9.527,0 c 5.623,0 9.463,-2.508 9.463,-7.529 l 0,-0.057 c 0,-5.11 -3.902,-7.834 -9.614,-7.834 l -2.297,0 0,-5.74 -7.079,0 0,21.16 z"
             id="path3693"
             style="fill:#231f20;fill-opacity:1;fill-rule:nonzero;stroke:none" /></g><g
           transform="translate(334.3503,-549.193)"
           id="g3695"><path
             d="m 0,0 0,0.058 c 0,2.509 -1.728,4.781 -4.445,4.781 -2.692,0 -4.386,-2.241 -4.386,-4.72 l 0,-0.061 c 0,-2.51 1.723,-4.776 4.444,-4.776 C -1.695,-4.718 0,-2.481 0,0 m -15.968,0 0,0.058 c 0,6.137 5.05,11.036 11.581,11.036 6.53,0 11.52,-4.842 11.52,-10.975 l 0,-0.061 c 0,-6.137 -5.051,-11.037 -11.578,-11.037 -6.53,0 -11.523,4.842 -11.523,10.979"
             id="path3697"
             style="fill:#231f20;fill-opacity:1;fill-rule:nonzero;stroke:none" /></g><g
           transform="translate(343.4305,-538.5542)"
           id="g3699"><path
             d="m 0,0 7.076,0 0,-15.117 9.944,0 0,-6.045 -17.02,0 L 0,0 z"
             id="path3701"
             style="fill:#231f20;fill-opacity:1;fill-rule:nonzero;stroke:none" /></g><g
           transform="translate(362.0034,-538.5542)"
           id="g3703"><path
             d="m 0,0 18.051,0 0,-5.801 -11.095,0 0,-2.148 10.337,0 0,-5.112 -10.337,0 0,-2.296 11.247,0 0,-5.805 L 0,-21.162 0,0 z"
             id="path3705"
             style="fill:#231f20;fill-opacity:1;fill-rule:nonzero;stroke:none" /></g><g
           transform="translate(660.0126,-475.5554)"
           id="g3707"><path
             d="m 0,0 17.894,0 0,-1.574 -16.006,0 0,-9.096 14.393,0 0,-1.548 -14.393,0 0,-9.272 16.185,0 0,-1.586 L 0,-23.076 0,0 z"
             id="path3709"
             style="fill:#231f20;fill-opacity:1;fill-rule:nonzero;stroke:none" /></g><g
           transform="translate(683.6926,-489.038)"
           id="g3711"><path
             d="m 0,0 0,13.483 1.863,0 0,-13.301 c 0,-5.445 3.201,-8.581 8.497,-8.581 5.124,0 8.372,2.838 8.372,8.399 l 0,13.483 1.886,0 0,-13.286 c 0,-6.619 -4.223,-10.158 -10.33,-10.158 C 4.27,-9.961 0,-6.455 0,0"
             id="path3713"
             style="fill:#231f20;fill-opacity:1;fill-rule:nonzero;stroke:none" /></g><g
           transform="translate(721.7137,-487.52)"
           id="g3715"><path
             d="m 0,0 c 4.212,0 7.314,1.932 7.314,5.283 l 0,0.05 c 0,3.117 -2.647,5.057 -7.208,5.057 l -8.572,0 L -8.466,0 0,0 z m -10.331,11.965 10.548,0 c 3.087,0 5.584,-0.901 7.097,-2.264 C 8.487,8.61 9.195,7.058 9.195,5.427 l 0,-0.094 c 0,-3.845 -3.112,-6.07 -7.363,-6.579 l 8.288,-9.865 -2.357,0 -8.014,9.564 -8.215,0 0,-9.564 -1.865,0 0,23.076 z"
             id="path3717"
             style="fill:#231f20;fill-opacity:1;fill-rule:nonzero;stroke:none" /></g><g
           transform="translate(759.5711,-487.1674)"
           id="g3719"><path
             d="m 0,0 0,0.081 c 0,5.698 -4.521,10.385 -10.75,10.385 -6.193,0 -10.634,-4.611 -10.634,-10.331 l 0,-0.054 c 0,-5.705 4.507,-10.387 10.71,-10.387 C -4.472,-10.306 0,-5.684 0,0 m -23.325,0 0,0.081 c 0,6.303 5.039,11.918 12.651,11.918 7.621,0 12.609,-5.566 12.609,-11.864 l 0,-0.054 c 0,-6.312 -5.073,-11.932 -12.685,-11.932 -7.588,0 -12.575,5.563 -12.575,11.851"
             id="path3721"
             style="fill:#231f20;fill-opacity:1;fill-rule:nonzero;stroke:none" /></g><g
           transform="translate(776.626,-488.4456)"
           id="g3723"><path
             d="m 0,0 c 4.669,0 7.821,2.219 7.821,5.656 l 0,0.074 c 0,3.662 -3.078,5.587 -7.595,5.587 l -7.117,0 L -6.891,0 0,0 z m -8.748,12.891 9.125,0 c 5.505,0 9.316,-2.602 9.316,-7.054 l 0,-0.051 c 0,-4.86 -4.551,-7.371 -9.787,-7.371 l -6.797,0 0,-8.601 -1.857,0 0,23.077 z"
             id="path3725"
             style="fill:#231f20;fill-opacity:1;fill-rule:nonzero;stroke:none" /></g><g
           transform="translate(803.4645,-469.5165)"
           id="g3727"><path
             d="m 0,0 2.12,-0.932 -3.851,-2.953 -1.613,0 L 0,0 z m -11.595,-6.039 17.869,0 0,-1.575 -16.02,0 0,-9.096 14.404,0 0,-1.545 -14.404,0 0,-9.275 16.195,0 0,-1.585 -18.044,0 0,23.076 z"
             id="path3729"
             style="fill:#231f20;fill-opacity:1;fill-rule:nonzero;stroke:none" /></g><g
           transform="translate(815.9229,-475.5554)"
           id="g3731"><path
             d="m 0,0 17.896,0 0,-1.574 -16.035,0 0,-9.096 14.388,0 0,-1.548 -14.388,0 0,-9.272 16.183,0 0,-1.586 L 0,-23.076 0,0 z"
             id="path3733"
             style="fill:#231f20;fill-opacity:1;fill-rule:nonzero;stroke:none" /></g><g
           transform="translate(839.9793,-475.5554)"
           id="g3735"><path
             d="m 0,0 1.753,0 17.356,-20.073 0,20.073 1.776,0 0,-23.076 -1.395,0 -17.688,20.503 0,-20.503 -1.802,0 L 0,0 z"
             id="path3737"
             style="fill:#231f20;fill-opacity:1;fill-rule:nonzero;stroke:none" /></g><g
           transform="translate(868.3342,-475.5554)"
           id="g3739"><path
             d="m 0,0 1.76,0 17.363,-20.073 0,20.073 1.78,0 0,-23.076 -1.388,0 -17.695,20.503 0,-20.503 -1.82,0 L 0,0 z"
             id="path3741"
             style="fill:#231f20;fill-opacity:1;fill-rule:nonzero;stroke:none" /></g><g
           transform="translate(896.7209,-475.5554)"
           id="g3743"><path
             d="m 0,0 17.874,0 0,-1.574 -16.009,0 0,-9.096 14.384,0 0,-1.548 -14.384,0 0,-9.272 16.179,0 0,-1.586 L 0,-23.076 0,0 z"
             id="path3745"
             style="fill:#231f20;fill-opacity:1;fill-rule:nonzero;stroke:none" /></g><g
           transform="translate(933.4506,-477.1298)"
           id="g3747"><path
             d="m 0,0 0,-19.916 6.503,0 c 7.02,0 11.445,4.378 11.445,9.878 l 0,0.081 C 17.948,-4.501 13.523,0 6.503,0 L 0,0 z m -1.847,1.574 8.35,0 c 7.908,0 13.395,-4.963 13.395,-11.475 l 0,-0.056 c 0,-6.5 -5.487,-11.544 -13.395,-11.544 l -8.35,0 0,23.075 z"
             id="path3749"
             style="fill:#231f20;fill-opacity:1;fill-rule:nonzero;stroke:none" /></g><g
           transform="translate(959.7144,-475.5554)"
           id="g3751"><path
             d="m 0,0 17.899,0 0,-1.574 -16.02,0 0,-9.096 14.395,0 0,-1.548 -14.395,0 0,-9.272 16.19,0 0,-1.586 L 0,-23.076 0,0 z"
             id="path3753"
             style="fill:#231f20;fill-opacity:1;fill-rule:nonzero;stroke:none" /></g><g
           transform="translate(994.5576,-475.5554)"
           id="g3755"><path
             d="m 0,0 1.88,0 0,-21.49 14.743,0 0,-1.586 L 0,-23.076 0,0 z"
             id="path3757"
             style="fill:#231f20;fill-opacity:1;fill-rule:nonzero;stroke:none" /></g><path
           d="m 1017.033,-475.556 1.869,0 0,-23.076 -1.869,0 0,23.076 z"
           id="path3759"
           style="fill:#231f20;fill-opacity:1;fill-rule:nonzero;stroke:none" /><g
           transform="translate(1026.6326,-475.5554)"
           id="g3761"><path
             d="m 0,0 1.858,0 0,-21.49 14.757,0 0,-1.586 L 0,-23.076 0,0 z"
             id="path3763"
             style="fill:#231f20;fill-opacity:1;fill-rule:nonzero;stroke:none" /></g><g
           transform="translate(1048.8767,-475.5554)"
           id="g3765"><path
             d="m 0,0 1.843,0 0,-21.49 14.751,0 0,-1.586 L 0,-23.076 0,0 z"
             id="path3767"
             style="fill:#231f20;fill-opacity:1;fill-rule:nonzero;stroke:none" /></g><g
           transform="translate(1071.1064,-475.5554)"
           id="g3769"><path
             d="m 0,0 17.85,0 0,-1.574 -16,0 0,-9.096 14.377,0 0,-1.548 -14.377,0 0,-9.272 16.194,0 0,-1.586 L 0,-23.076 0,0 z"
             id="path3771"
             style="fill:#231f20;fill-opacity:1;fill-rule:nonzero;stroke:none" /></g><g
           transform="translate(660.0416,-410.8338)"
           id="g3773"><path
             d="M 0,0 16.253,0 26.235,-16.381 36.234,0 l 16.252,0 0,-46.613 -15.512,0 0,23.104 -10.739,-16.588 -0.249,0 -10.739,16.588 0,-23.104 L 0,-46.613 0,0 z"
             id="path3775"
             style="fill:#231f20;fill-opacity:1;fill-rule:nonzero;stroke:none" /></g><g
           transform="translate(738.4637,-397.0391)"
           id="g3777"><path
             d="m 0,0 15.391,-3.47 -10.654,-7.659 -11.132,0 L 0,0 z m -20.573,-13.796 39.761,0 0,-12.78 -24.44,0 0,-4.725 22.779,0 0,-11.275 -22.779,0 0,-5.052 24.773,0 0,-12.781 -40.094,0 0,46.613 z"
             id="path3779"
             style="fill:#231f20;fill-opacity:1;fill-rule:nonzero;stroke:none" /></g><g
           transform="translate(774.1205,-424.0186)"
           id="g3781"><path
             d="m 0,0 -13.718,0 0,13.185 43.044,0 0,-13.185 -13.734,0 0,-33.43 L 0,-33.43 0,0 z"
             id="path3783"
             style="fill:#231f20;fill-opacity:1;fill-rule:nonzero;stroke:none" /></g><g
           transform="translate(829.3157,-433.0018)"
           id="g3785"><path
             d="m 0,0 c 3.721,0 5.982,1.654 5.982,4.526 l 0,0.136 c 0,2.997 -2.33,4.459 -5.933,4.459 l -6.782,0 L -6.733,0 0,0 z m -22.328,22.167 22.787,0 c 8.251,0 13.515,-2.069 16.785,-5.327 2.797,-2.794 4.27,-6.253 4.27,-11.054 l 0,-0.131 c 0,-6.791 -3.548,-11.521 -9.208,-14.254 l 10.862,-15.847 -17.788,0 -8.787,13.306 -3.326,0 0,-13.306 -15.595,0 0,46.613 z"
             id="path3787"
             style="fill:#231f20;fill-opacity:1;fill-rule:nonzero;stroke:none" /></g><g
           transform="translate(888.7443,-434.2625)"
           id="g3789"><path
             d="m 0,0 0,0.125 c 0,5.524 -3.795,10.522 -9.782,10.522 -5.935,0 -9.668,-4.929 -9.668,-10.391 l 0,-0.131 c 0,-5.536 3.804,-10.53 9.794,-10.53 C -3.727,-10.405 0,-5.478 0,0 m -35.178,0 0,0.125 c 0,13.512 11.136,24.305 25.522,24.305 14.374,0 25.38,-10.662 25.38,-24.174 l 0,-0.131 c 0,-13.531 -11.133,-24.315 -25.506,-24.315 -14.399,0 -25.396,10.66 -25.396,24.19"
             id="path3791"
             style="fill:#231f20;fill-opacity:1;fill-rule:nonzero;stroke:none" /></g><g
           transform="translate(928.5703,-433.6684)"
           id="g3793"><path
             d="m 0,0 c 3.999,0 6.671,1.784 6.671,5.124 l 0,0.137 c 0,3.394 -2.461,5.124 -6.601,5.124 l -4.273,0 L -4.203,0 0,0 z m -19.822,22.834 21.021,0 c 12.409,0 20.889,-5.518 20.889,-16.582 l 0,-0.137 c 0,-11.252 -8.621,-17.246 -21.227,-17.246 l -5.064,0 0,-12.649 -15.619,0 0,46.614 z"
             id="path3795"
             style="fill:#231f20;fill-opacity:1;fill-rule:nonzero;stroke:none" /></g><g
           transform="translate(988.1398,-434.2625)"
           id="g3797"><path
             d="m 0,0 0,0.125 c 0,5.524 -3.799,10.522 -9.793,10.522 -5.938,0 -9.665,-4.929 -9.665,-10.391 l 0,-0.131 c 0,-5.536 3.801,-10.53 9.795,-10.53 C -3.73,-10.405 0,-5.478 0,0 m -35.196,0 0,0.125 c 0,13.512 11.14,24.305 25.533,24.305 14.381,0 25.39,-10.662 25.39,-24.174 l 0,-0.131 c 0,-13.531 -11.139,-24.315 -25.52,-24.315 -14.388,0 -25.403,10.66 -25.403,24.19"
             id="path3799"
             style="fill:#231f20;fill-opacity:1;fill-rule:nonzero;stroke:none" /></g><g
           transform="translate(1008.1443,-410.8338)"
           id="g3801"><path
             d="m 0,0 15.601,0 0,-33.307 21.9,0 0,-13.306 L 0,-46.613 0,0 z"
             id="path3803"
             style="fill:#231f20;fill-opacity:1;fill-rule:nonzero;stroke:none" /></g><g
           transform="translate(1049.0706,-410.8338)"
           id="g3805"><path
             d="m 0,0 39.772,0 0,-12.781 -24.444,0 0,-4.725 22.764,0 0,-11.275 -22.764,0 0,-5.052 24.776,0 0,-12.78 L 0,-46.613 0,0 z"
             id="path3807"
             style="fill:#231f20;fill-opacity:1;fill-rule:nonzero;stroke:none" /></g><g
           transform="translate(564.1046,-475.6928)"
           id="g3809"><path
             d="m 0,0 -47.59,0 0,55.33 47.189,0 0,-15.177 -29.008,0 0,-5.613 27.033,0 0,-13.355 -27.033,0 0,-6.01 L 0,15.175 0,0 z m 49.504,15.805 0,92.685 -165.743,0 0,-53.16 19.289,0 11.855,-19.447 11.857,19.447 19.289,0 0,-55.33 -18.421,0 0,27.425 -12.725,-19.68 -0.314,0 -12.725,19.68 0,-27.425 -18.105,0 0,-53.162 165.743,0 0,53.162 -44.503,0 0,55.33 18.495,0 0,-39.525 26.008,0 z"
             id="path3811"
             style="fill:#231f20;fill-opacity:1;fill-rule:nonzero;stroke:none" /></g><path
           d="m 447.866,-223.76 165.743,0 0,161.652 -165.743,0 0,-161.652 z"
           id="path3813"
           style="fill:#ffffff;fill-opacity:1;fill-rule:nonzero;stroke:none" /><path
           d="m 185.338,-223.76 194.984,0 0,190.169 -194.984,0 0,-190.169 z"
           id="path3815"
           style="fill:#ffffff;fill-opacity:1;fill-rule:nonzero;stroke:none" /><g
           transform="translate(322.0831,-161.2184)"
           id="g3817"><path
             d="m 0,0 -55.985,0 0,65.092 55.512,0 0,-17.854 -34.125,0 0,-6.601 31.805,0 0,-15.713 -31.805,0 0,-7.07 L 0,17.854 0,0 z m 58.239,18.596 0,109.034 -194.984,0 0,-62.538 22.692,0 13.946,-22.877 13.947,22.877 22.693,0 0,-65.092 -21.671,0 0,32.265 -14.969,-23.151 -0.369,0 -14.97,23.151 0,-32.265 -21.299,0 0,-62.541 194.984,0 0,62.541 -52.357,0 0,65.092 21.76,0 0,-46.496 30.597,0 z"
             id="path3819"
             style="fill:#231f20;fill-opacity:1;fill-rule:nonzero;stroke:none" /></g><g
           transform="translate(185.4535,-262.8339)"
           id="g3821"><path
             d="m 0,0 8.119,0 0,-0.715 -7.267,0 0,-4.127 6.536,0 0,-0.704 -6.536,0 0,-4.207 7.348,0 0,-0.722 -8.2,0 L 0,0 z"
             id="path3823"
             style="fill:#231f20;fill-opacity:1;fill-rule:nonzero;stroke:none" /></g><g
           transform="translate(196.2027,-268.9554)"
           id="g3825"><path
             d="m 0,0 0,6.122 0.841,0 0,-6.039 c 0,-2.472 1.454,-3.896 3.86,-3.896 2.32,0 3.799,1.293 3.799,3.813 l 0,6.122 0.852,0 0,-6.03 C 9.352,-2.914 7.44,-4.521 4.671,-4.521 1.935,-4.521 0,-2.928 0,0"
             id="path3827"
             style="fill:#231f20;fill-opacity:1;fill-rule:nonzero;stroke:none" /></g><g
           transform="translate(213.4567,-268.2661)"
           id="g3829"><path
             d="m 0,0 c 1.912,0 3.318,0.877 3.318,2.398 l 0,0.025 c 0,1.41 -1.197,2.295 -3.269,2.295 l -3.889,0 L -3.84,0 0,0 z m -4.689,5.433 4.792,0 C 1.504,5.433 2.63,5.021 3.318,4.404 3.853,3.907 4.176,3.201 4.176,2.461 l 0,-0.038 c 0,-1.746 -1.415,-2.759 -3.345,-2.986 l 3.76,-4.48 -1.065,0 -3.636,4.337 -3.73,0 0,-4.337 -0.849,0 0,10.476 z"
             id="path3831"
             style="fill:#231f20;fill-opacity:1;fill-rule:nonzero;stroke:none" /></g><g
           transform="translate(230.6422,-268.1003)"
           id="g3833"><path
             d="m 0,0 0,0.032 c 0,2.584 -2.056,4.711 -4.878,4.711 -2.813,0 -4.828,-2.091 -4.828,-4.687 l 0,-0.024 c 0,-2.592 2.045,-4.719 4.866,-4.719 C -2.029,-4.687 0,-2.585 0,0 m -10.589,0 0,0.032 c 0,2.862 2.289,5.406 5.749,5.406 3.453,0 5.719,-2.526 5.719,-5.382 l 0,-0.024 c 0,-2.865 -2.303,-5.416 -5.757,-5.416 -3.447,0 -5.711,2.524 -5.711,5.384"
             id="path3835"
             style="fill:#231f20;fill-opacity:1;fill-rule:nonzero;stroke:none" /></g><g
           transform="translate(238.3832,-268.6857)"
           id="g3837"><path
             d="m 0,0 c 2.12,0 3.553,1.011 3.553,2.566 l 0,0.032 c 0,1.663 -1.401,2.54 -3.45,2.54 l -3.236,0 L -3.133,0 0,0 z m -3.972,5.852 4.143,0 C 2.67,5.852 4.4,4.669 4.4,2.649 l 0,-0.026 c 0,-2.204 -2.067,-3.345 -4.443,-3.345 l -3.09,0 0,-3.902 -0.839,0 0,10.476 z"
             id="path3839"
             style="fill:#231f20;fill-opacity:1;fill-rule:nonzero;stroke:none" /></g><g
           transform="translate(250.5621,-260.0973)"
           id="g3841"><path
             d="m 0,0 0.966,-0.421 -1.751,-1.339 -0.73,0 L 0,0 z m -5.258,-2.737 8.107,0 0,-0.713 -7.265,0 0,-4.128 6.534,0 0,-0.705 -6.534,0 0,-4.207 7.348,0 0,-0.721 -8.19,0 0,10.474 z"
             id="path3843"
             style="fill:#231f20;fill-opacity:1;fill-rule:nonzero;stroke:none" /></g><g
           transform="translate(256.2199,-262.8339)"
           id="g3845"><path
             d="m 0,0 8.121,0 0,-0.715 -7.28,0 0,-4.127 6.532,0 0,-0.704 -6.532,0 0,-4.207 7.349,0 0,-0.722 -8.19,0 L 0,0 z"
             id="path3847"
             style="fill:#231f20;fill-opacity:1;fill-rule:nonzero;stroke:none" /></g><g
           transform="translate(267.141,-262.8339)"
           id="g3849"><path
             d="m 0,0 0.794,0 7.878,-9.114 0,9.114 0.807,0 0,-10.475 -0.636,0 -8.025,9.303 0,-9.303 -0.818,0 L 0,0 z"
             id="path3851"
             style="fill:#231f20;fill-opacity:1;fill-rule:nonzero;stroke:none" /></g><g
           transform="translate(280.011,-262.8339)"
           id="g3853"><path
             d="m 0,0 0.8,0 7.879,-9.114 0,9.114 0.811,0 0,-10.475 -0.634,0 -8.031,9.303 0,-9.303 -0.825,0 L 0,0 z"
             id="path3855"
             style="fill:#231f20;fill-opacity:1;fill-rule:nonzero;stroke:none" /></g><g
           transform="translate(292.897,-262.8339)"
           id="g3857"><path
             d="m 0,0 8.115,0 0,-0.715 -7.27,0 0,-4.127 6.53,0 0,-0.704 -6.53,0 0,-4.207 7.343,0 0,-0.722 -8.188,0 L 0,0 z"
             id="path3859"
             style="fill:#231f20;fill-opacity:1;fill-rule:nonzero;stroke:none" /></g><g
           transform="translate(309.5498,-263.5479)"
           id="g3861"><path
             d="m 0,0 0,-9.04 2.948,0 c 3.18,0 5.186,1.988 5.186,4.488 l 0,0.031 C 8.134,-2.046 6.128,0 2.948,0 L 0,0 z m -0.84,0.715 3.788,0 c 3.584,0 6.068,-2.257 6.068,-5.211 l 0,-0.025 c 0,-2.952 -2.484,-5.239 -6.068,-5.239 l -3.788,0 0,10.475 z"
             id="path3863"
             style="fill:#231f20;fill-opacity:1;fill-rule:nonzero;stroke:none" /></g><g
           transform="translate(321.4528,-262.8339)"
           id="g3865"><path
             d="m 0,0 8.116,0 0,-0.715 -7.267,0 0,-4.127 6.53,0 0,-0.704 -6.53,0 0,-4.207 7.346,0 0,-0.722 -8.195,0 L 0,0 z"
             id="path3867"
             style="fill:#231f20;fill-opacity:1;fill-rule:nonzero;stroke:none" /></g><g
           transform="translate(337.2637,-262.8339)"
           id="g3869"><path
             d="m 0,0 0.852,0 0,-9.753 6.688,0 0,-0.722 -7.54,0 L 0,0 z"
             id="path3871"
             style="fill:#231f20;fill-opacity:1;fill-rule:nonzero;stroke:none" /></g><path
           d="m 347.461,-262.833 0.85,0 0,-10.475 -0.85,0 0,10.475 z"
           id="path3873"
           style="fill:#231f20;fill-opacity:1;fill-rule:nonzero;stroke:none" /><g
           transform="translate(351.8186,-262.8339)"
           id="g3875"><path
             d="m 0,0 0.841,0 0,-9.753 6.704,0 0,-0.722 -7.545,0 L 0,0 z"
             id="path3877"
             style="fill:#231f20;fill-opacity:1;fill-rule:nonzero;stroke:none" /></g><g
           transform="translate(361.9152,-262.8339)"
           id="g3879"><path
             d="m 0,0 0.84,0 0,-9.753 6.692,0 0,-0.722 -7.532,0 L 0,0 z"
             id="path3881"
             style="fill:#231f20;fill-opacity:1;fill-rule:nonzero;stroke:none" /></g><g
           transform="translate(372.0074,-262.8339)"
           id="g3883"><path
             d="m 0,0 8.105,0 0,-0.715 -7.267,0 0,-4.127 6.526,0 0,-0.704 -6.526,0 0,-4.207 7.35,0 0,-0.722 -8.188,0 L 0,0 z"
             id="path3885"
             style="fill:#231f20;fill-opacity:1;fill-rule:nonzero;stroke:none" /></g><g
           transform="translate(185.4633,-233.4581)"
           id="g3887"><path
             d="M 0,0 7.375,0 11.912,-7.437 16.45,0 l 7.375,0 0,-21.162 -7.043,0 0,10.492 -4.87,-7.529 -0.119,0 -4.869,7.529 0,-10.492 -6.924,0 L 0,0 z"
             id="path3889"
             style="fill:#231f20;fill-opacity:1;fill-rule:nonzero;stroke:none" /></g><g
           transform="translate(221.0612,-227.1953)"
           id="g3891"><path
             d="m 0,0 6.983,-1.576 -4.836,-3.478 -5.048,0 L 0,0 z m -9.338,-6.263 18.047,0 0,-5.801 -11.096,0 0,-2.147 10.34,0 0,-5.113 -10.34,0 0,-2.296 11.246,0 0,-5.803 -18.197,0 0,21.16 z"
             id="path3893"
             style="fill:#231f20;fill-opacity:1;fill-rule:nonzero;stroke:none" /></g><g
           transform="translate(237.2513,-239.4421)"
           id="g3895"><path
             d="m 0,0 -6.231,0 0,5.983 19.535,0 0,-5.983 -6.23,0 0,-15.177 -7.074,0 L 0,0 z"
             id="path3897"
             style="fill:#231f20;fill-opacity:1;fill-rule:nonzero;stroke:none" /></g><g
           transform="translate(262.2977,-243.5256)"
           id="g3899"><path
             d="m 0,0 c 1.688,0 2.717,0.755 2.717,2.058 l 0,0.062 c 0,1.357 -1.06,2.023 -2.694,2.023 l -3.08,0 L -3.057,0 0,0 z m -10.132,10.067 10.34,0 C 3.956,10.067 6.346,9.13 7.827,7.65 9.098,6.382 9.764,4.808 9.764,2.631 l 0,-0.058 c 0,-3.084 -1.603,-5.229 -4.173,-6.469 l 4.926,-7.199 -8.072,0 -3.991,6.045 -1.511,0 0,-6.045 -7.075,0 0,21.162 z"
             id="path3901"
             style="fill:#231f20;fill-opacity:1;fill-rule:nonzero;stroke:none" /></g><g
           transform="translate(289.2719,-244.0968)"
           id="g3903"><path
             d="m 0,0 0,0.06 c 0,2.507 -1.721,4.779 -4.443,4.779 -2.69,0 -4.386,-2.241 -4.386,-4.72 l 0,-0.059 c 0,-2.514 1.726,-4.778 4.447,-4.778 C -1.69,-4.718 0,-2.482 0,0 m -15.964,0 0,0.06 c 0,6.135 5.055,11.035 11.582,11.035 6.529,0 11.521,-4.841 11.521,-10.976 l 0,-0.059 c 0,-6.139 -5.052,-11.037 -11.582,-11.037 -6.531,0 -11.521,4.842 -11.521,10.977"
             id="path3905"
             style="fill:#231f20;fill-opacity:1;fill-rule:nonzero;stroke:none" /></g><g
           transform="translate(307.3388,-243.8236)"
           id="g3907"><path
             d="m 0,0 c 1.811,0 3.022,0.809 3.022,2.325 l 0,0.06 C 3.022,3.93 1.905,4.71 0.031,4.71 l -1.936,0 0,-4.71 L 0,0 z m -8.986,10.365 9.529,0 c 5.623,0 9.463,-2.506 9.463,-7.529 l 0,-0.056 c 0,-5.113 -3.902,-7.834 -9.614,-7.834 l -2.297,0 0,-5.741 -7.081,0 0,21.16 z"
             id="path3909"
             style="fill:#231f20;fill-opacity:1;fill-rule:nonzero;stroke:none" /></g><g
           transform="translate(334.3503,-244.0968)"
           id="g3911"><path
             d="m 0,0 0,0.06 c 0,2.507 -1.728,4.779 -4.447,4.779 -2.69,0 -4.384,-2.241 -4.384,-4.72 l 0,-0.059 c 0,-2.514 1.723,-4.778 4.444,-4.778 C -1.695,-4.718 0,-2.482 0,0 m -15.968,0 0,0.06 c 0,6.135 5.05,11.035 11.581,11.035 6.53,0 11.52,-4.841 11.52,-10.976 l 0,-0.059 c 0,-6.139 -5.051,-11.037 -11.58,-11.037 -6.528,0 -11.521,4.842 -11.521,10.977"
             id="path3913"
             style="fill:#231f20;fill-opacity:1;fill-rule:nonzero;stroke:none" /></g><g
           transform="translate(343.4305,-233.4581)"
           id="g3915"><path
             d="m 0,0 7.076,0 0,-15.117 9.944,0 0,-6.045 -17.02,0 L 0,0 z"
             id="path3917"
             style="fill:#231f20;fill-opacity:1;fill-rule:nonzero;stroke:none" /></g><g
           transform="translate(362.0034,-233.4581)"
           id="g3919"><path
             d="m 0,0 18.051,0 0,-5.801 -11.096,0 0,-2.147 10.338,0 0,-5.113 -10.338,0 0,-2.296 11.248,0 0,-5.805 L 0,-21.162 0,0 z"
             id="path3921"
             style="fill:#231f20;fill-opacity:1;fill-rule:nonzero;stroke:none" /></g><g
           transform="translate(660.0134,-170.4592)"
           id="g3923"><path
             d="m 0,0 17.894,0 0,-1.574 -16.006,0 0,-9.098 14.392,0 0,-1.546 -14.392,0 0,-9.272 16.183,0 0,-1.586 L 0,-23.076 0,0 z"
             id="path3925"
             style="fill:#231f20;fill-opacity:1;fill-rule:nonzero;stroke:none" /></g><g
           transform="translate(683.6942,-183.942)"
           id="g3927"><path
             d="m 0,0 0,13.483 1.86,0 0,-13.301 c 0,-5.443 3.201,-8.581 8.498,-8.581 5.124,0 8.372,2.838 8.372,8.399 l 0,13.483 1.885,0 0,-13.286 C 20.615,-6.422 16.393,-9.961 10.286,-9.961 4.266,-9.961 0,-6.455 0,0"
             id="path3929"
             style="fill:#231f20;fill-opacity:1;fill-rule:nonzero;stroke:none" /></g><g
           transform="translate(721.7147,-182.4255)"
           id="g3931"><path
             d="m 0,0 c 4.21,0 7.314,1.934 7.314,5.284 l 0,0.051 c 0,3.118 -2.647,5.057 -7.208,5.057 l -8.575,0 L -8.469,0 0,0 z m -10.333,11.967 10.548,0 c 3.089,0 5.586,-0.901 7.099,-2.266 C 8.486,8.612 9.195,7.059 9.195,5.427 l 0,-0.092 c 0,-3.846 -3.112,-6.072 -7.363,-6.579 l 8.288,-9.865 -2.357,0 -8.014,9.563 -8.218,0 0,-9.563 -1.864,0 0,23.076 z"
             id="path3933"
             style="fill:#231f20;fill-opacity:1;fill-rule:nonzero;stroke:none" /></g><g
           transform="translate(759.5694,-182.0714)"
           id="g3935"><path
             d="m 0,0 0,0.079 c 0,5.702 -4.521,10.387 -10.748,10.387 -6.193,0 -10.636,-4.611 -10.636,-10.331 l 0,-0.056 c 0,-5.705 4.51,-10.385 10.714,-10.385 C -4.472,-10.306 0,-5.684 0,0 m -23.323,0 0,0.079 c 0,6.305 5.039,11.92 12.653,11.92 7.62,0 12.609,-5.568 12.609,-11.864 l 0,-0.056 c 0,-6.311 -5.075,-11.932 -12.687,-11.932 -7.588,0 -12.575,5.565 -12.575,11.853"
             id="path3937"
             style="fill:#231f20;fill-opacity:1;fill-rule:nonzero;stroke:none" /></g><g
           transform="translate(776.626,-183.3495)"
           id="g3939"><path
             d="m 0,0 c 4.671,0 7.823,2.219 7.823,5.656 l 0,0.074 c 0,3.662 -3.078,5.587 -7.597,5.587 l -7.117,0 L -6.891,0 0,0 z m -8.746,12.891 9.123,0 c 5.503,0 9.315,-2.602 9.315,-7.054 l 0,-0.051 c 0,-4.862 -4.55,-7.371 -9.784,-7.371 l -6.799,0 0,-8.601 -1.855,0 0,23.077 z"
             id="path3941"
             style="fill:#231f20;fill-opacity:1;fill-rule:nonzero;stroke:none" /></g><g
           transform="translate(803.4645,-164.4205)"
           id="g3943"><path
             d="m 0,0 2.121,-0.932 -3.852,-2.953 -1.611,0 L 0,0 z m -11.595,-6.039 17.869,0 0,-1.575 -16.018,0 0,-9.097 14.404,0 0,-1.544 -14.404,0 0,-9.275 16.191,0 0,-1.585 -18.042,0 0,23.076 z"
             id="path3945"
             style="fill:#231f20;fill-opacity:1;fill-rule:nonzero;stroke:none" /></g><g
           transform="translate(815.9247,-170.4592)"
           id="g3947"><path
             d="m 0,0 17.894,0 0,-1.574 -16.033,0 0,-9.098 14.388,0 0,-1.546 -14.388,0 0,-9.272 16.181,0 0,-1.586 L 0,-23.076 0,0 z"
             id="path3949"
             style="fill:#231f20;fill-opacity:1;fill-rule:nonzero;stroke:none" /></g><g
           transform="translate(839.981,-170.4592)"
           id="g3951"><path
             d="m 0,0 1.751,0 17.356,-20.073 0,20.073 1.777,0 0,-23.076 -1.394,0 -17.688,20.503 0,-20.503 -1.802,0 L 0,0 z"
             id="path3953"
             style="fill:#231f20;fill-opacity:1;fill-rule:nonzero;stroke:none" /></g><g
           transform="translate(868.3378,-170.4592)"
           id="g3955"><path
             d="m 0,0 1.757,0 17.364,-20.073 0,20.073 1.781,0 0,-23.076 -1.391,0 -17.697,20.503 0,-20.503 -1.814,0 L 0,0 z"
             id="path3957"
             style="fill:#231f20;fill-opacity:1;fill-rule:nonzero;stroke:none" /></g><g
           transform="translate(896.7225,-170.4592)"
           id="g3959"><path
             d="m 0,0 17.876,0 0,-1.574 -16.013,0 0,-9.098 14.386,0 0,-1.546 -14.386,0 0,-9.272 16.179,0 0,-1.586 L 0,-23.076 0,0 z"
             id="path3961"
             style="fill:#231f20;fill-opacity:1;fill-rule:nonzero;stroke:none" /></g><g
           transform="translate(933.4523,-172.0337)"
           id="g3963"><path
             d="m 0,0 0,-19.916 6.503,0 c 7.018,0 11.447,4.378 11.447,9.878 l 0,0.079 C 17.95,-4.503 13.521,0 6.503,0 L 0,0 z m -1.849,1.574 8.352,0 c 7.906,0 13.395,-4.963 13.395,-11.475 l 0,-0.058 c 0,-6.498 -5.489,-11.542 -13.395,-11.542 l -8.352,0 0,23.075 z"
             id="path3965"
             style="fill:#231f20;fill-opacity:1;fill-rule:nonzero;stroke:none" /></g><g
           transform="translate(959.7144,-170.4592)"
           id="g3967"><path
             d="m 0,0 17.903,0 0,-1.574 -16.024,0 0,-9.098 14.395,0 0,-1.546 -14.395,0 0,-9.272 16.19,0 0,-1.586 L 0,-23.076 0,0 z"
             id="path3969"
             style="fill:#231f20;fill-opacity:1;fill-rule:nonzero;stroke:none" /></g><g
           transform="translate(994.5612,-170.4592)"
           id="g3971"><path
             d="m 0,0 1.878,0 0,-21.49 14.741,0 0,-1.586 L 0,-23.076 0,0 z"
             id="path3973"
             style="fill:#231f20;fill-opacity:1;fill-rule:nonzero;stroke:none" /></g><path
           d="m 1017.033,-170.459 1.87,0 0,-23.076 -1.87,0 0,23.076 z"
           id="path3975"
           style="fill:#231f20;fill-opacity:1;fill-rule:nonzero;stroke:none" /><g
           transform="translate(1026.6326,-170.4592)"
           id="g3977"><path
             d="m 0,0 1.858,0 0,-21.49 14.759,0 0,-1.586 L 0,-23.076 0,0 z"
             id="path3979"
             style="fill:#231f20;fill-opacity:1;fill-rule:nonzero;stroke:none" /></g><g
           transform="translate(1048.8767,-170.4592)"
           id="g3981"><path
             d="m 0,0 1.847,0 0,-21.49 14.747,0 0,-1.586 L 0,-23.076 0,0 z"
             id="path3983"
             style="fill:#231f20;fill-opacity:1;fill-rule:nonzero;stroke:none" /></g><g
           transform="translate(1071.1079,-170.4592)"
           id="g3985"><path
             d="m 0,0 17.849,0 0,-1.574 -16,0 0,-9.098 14.379,0 0,-1.546 -14.379,0 0,-9.272 16.193,0 0,-1.586 L 0,-23.076 0,0 z"
             id="path3987"
             style="fill:#231f20;fill-opacity:1;fill-rule:nonzero;stroke:none" /></g><g
           transform="translate(660.0434,-105.736)"
           id="g3989"><path
             d="M 0,0 16.249,0 26.233,-16.383 36.232,0 l 16.253,0 0,-46.615 -15.513,0 0,23.106 -10.739,-16.59 -0.249,0 -10.739,16.59 0,-23.106 L 0,-46.615 0,0 z"
             id="path3991"
             style="fill:#231f20;fill-opacity:1;fill-rule:nonzero;stroke:none" /></g><g
           transform="translate(738.4647,-91.9428)"
           id="g3993"><path
             d="m 0,0 15.39,-3.47 -10.654,-7.657 -11.131,0 L 0,0 z m -20.575,-13.794 39.765,0 0,-12.782 -24.444,0 0,-4.725 22.781,0 0,-11.275 -22.781,0 0,-5.052 24.776,0 0,-12.781 -40.097,0 0,46.615 z"
             id="path3995"
             style="fill:#231f20;fill-opacity:1;fill-rule:nonzero;stroke:none" /></g><g
           transform="translate(774.1225,-118.9243)"
           id="g3997"><path
             d="m 0,0 -13.718,0 0,13.189 43.046,0 0,-13.189 -13.736,0 0,-33.428 L 0,-33.428 0,0 z"
             id="path3999"
             style="fill:#231f20;fill-opacity:1;fill-rule:nonzero;stroke:none" /></g><g
           transform="translate(829.3157,-127.9058)"
           id="g4001"><path
             d="m 0,0 c 3.723,0 5.982,1.654 5.982,4.526 l 0,0.136 c 0,2.997 -2.33,4.457 -5.93,4.457 l -6.783,0 L -6.731,0 0,0 z m -22.328,22.169 22.788,0 c 8.253,0 13.516,-2.071 16.786,-5.331 2.796,-2.79 4.27,-6.253 4.27,-11.052 l 0,-0.131 c 0,-6.791 -3.546,-11.521 -9.208,-14.256 l 10.861,-15.845 -17.789,0 -8.787,13.306 -3.324,0 0,-13.306 -15.597,0 0,46.615 z"
             id="path4003"
             style="fill:#231f20;fill-opacity:1;fill-rule:nonzero;stroke:none" /></g><g
           transform="translate(888.7443,-129.1663)"
           id="g4005"><path
             d="m 0,0 0,0.125 c 0,5.522 -3.795,10.522 -9.782,10.522 -5.933,0 -9.668,-4.929 -9.668,-10.391 l 0,-0.131 c 0,-5.536 3.804,-10.53 9.793,-10.53 C -3.725,-10.405 0,-5.478 0,0 m -35.178,0 0,0.125 c 0,13.513 11.136,24.305 25.521,24.305 14.375,0 25.381,-10.662 25.381,-24.174 l 0,-0.131 c 0,-13.531 -11.131,-24.313 -25.506,-24.313 -14.399,0 -25.396,10.658 -25.396,24.188"
             id="path4007"
             style="fill:#231f20;fill-opacity:1;fill-rule:nonzero;stroke:none" /></g><g
           transform="translate(928.5721,-128.5739)"
           id="g4009"><path
             d="m 0,0 c 3.997,0 6.671,1.786 6.671,5.126 l 0,0.137 c 0,3.394 -2.464,5.124 -6.603,5.124 l -4.271,0 L -4.203,0 0,0 z m -19.822,22.837 21.021,0 c 12.405,0 20.887,-5.517 20.887,-16.581 l 0,-0.139 c 0,-11.254 -8.617,-17.244 -21.225,-17.244 l -5.064,0 0,-12.651 -15.619,0 0,46.615 z"
             id="path4011"
             style="fill:#231f20;fill-opacity:1;fill-rule:nonzero;stroke:none" /></g><g
           transform="translate(988.1415,-129.1663)"
           id="g4013"><path
             d="m 0,0 0,0.125 c 0,5.522 -3.801,10.522 -9.795,10.522 -5.938,0 -9.664,-4.929 -9.664,-10.391 l 0,-0.131 c 0,-5.536 3.8,-10.53 9.794,-10.53 C -3.732,-10.405 0,-5.478 0,0 m -35.198,0 0,0.125 c 0,13.513 11.14,24.305 25.533,24.305 14.381,0 25.392,-10.662 25.392,-24.174 l 0,-0.131 c 0,-13.531 -11.141,-24.313 -25.522,-24.313 -14.387,0 -25.403,10.658 -25.403,24.188"
             id="path4015"
             style="fill:#231f20;fill-opacity:1;fill-rule:nonzero;stroke:none" /></g><g
           transform="translate(1008.1462,-105.736)"
           id="g4017"><path
             d="m 0,0 15.601,0 0,-33.309 21.898,0 0,-13.306 L 0,-46.615 0,0 z"
             id="path4019"
             style="fill:#231f20;fill-opacity:1;fill-rule:nonzero;stroke:none" /></g><g
           transform="translate(1049.0688,-105.736)"
           id="g4021"><path
             d="m 0,0 39.774,0 0,-12.783 -24.444,0 0,-4.725 22.765,0 0,-11.275 -22.765,0 0,-5.051 24.776,0 0,-12.781 L 0,-46.615 0,0 z"
             id="path4023"
             style="fill:#231f20;fill-opacity:1;fill-rule:nonzero;stroke:none" /></g><g
           transform="translate(564.1036,-170.5985)"
           id="g4025"><path
             d="m 0,0 -47.588,0 0,55.33 47.187,0 0,-15.175 -29.008,0 0,-5.611 27.033,0 0,-13.359 -27.033,0 0,-6.008 L 0,15.177 0,0 z m 49.506,15.809 0,92.683 -165.743,0 0,-53.162 19.289,0 11.855,-19.447 11.856,19.447 19.288,0 0,-55.33 -18.419,0 0,27.427 -12.725,-19.68 -0.316,0 -12.725,19.68 0,-27.427 -18.103,0 0,-53.16 165.743,0 0,53.16 -44.505,0 0,55.33 18.497,0 0,-39.521 26.008,0 z"
             id="path4027"
             style="fill:#231f20;fill-opacity:1;fill-rule:nonzero;stroke:none" /></g></g></g></g></svg>